<svg xmlns="http://www.w3.org/2000/svg" xmlns:xlink="http://www.w3.org/1999/xlink" viewBox="0 0 497.93 494.97"><defs><style>.cls-1{fill:none;}.cls-2{isolation:isolate;}.cls-3{clip-path:url(#clip-path);}.cls-4{fill:url(#New_Gradient_Swatch);}.cls-5{opacity:0.3;}.cls-6{clip-path:url(#clip-path-2);}.cls-7{fill:url(#New_Gradient_Swatch-2);}.cls-8{fill:url(#New_Gradient_Swatch-3);}.cls-9{opacity:0.5;}.cls-10{fill:url(#New_Gradient_Swatch-4);}.cls-11{fill:url(#New_Gradient_Swatch-5);}.cls-12{fill:url(#New_Gradient_Swatch-6);}.cls-13{fill:url(#New_Gradient_Swatch-7);}.cls-14{fill:url(#New_Gradient_Swatch-8);}.cls-15{fill:url(#New_Gradient_Swatch-9);}.cls-16{fill:url(#New_Gradient_Swatch-10);}.cls-17{fill:url(#New_Gradient_Swatch-11);}.cls-18{fill:url(#New_Gradient_Swatch-12);}.cls-19{fill:url(#New_Gradient_Swatch-13);}.cls-20{fill:url(#New_Gradient_Swatch-14);}.cls-21{fill:url(#New_Gradient_Swatch-15);}.cls-22{fill:url(#New_Gradient_Swatch-16);}.cls-23{fill:url(#New_Gradient_Swatch-17);}.cls-24{fill:url(#New_Gradient_Swatch-18);}.cls-25{fill:url(#New_Gradient_Swatch-19);}.cls-26{fill:url(#New_Gradient_Swatch-20);}.cls-27{fill:url(#New_Gradient_Swatch-21);}.cls-28{fill:url(#New_Gradient_Swatch-22);}.cls-29{fill:url(#New_Gradient_Swatch-23);}.cls-30{fill:url(#New_Gradient_Swatch-24);}.cls-31{fill:url(#New_Gradient_Swatch-25);}.cls-32{fill:url(#New_Gradient_Swatch-26);}.cls-33{fill:url(#New_Gradient_Swatch-27);}.cls-34{fill:url(#New_Gradient_Swatch-28);}.cls-35{fill:url(#New_Gradient_Swatch-29);}.cls-36{fill:url(#New_Gradient_Swatch-30);}.cls-37{fill:url(#New_Gradient_Swatch-31);}.cls-38{fill:url(#New_Gradient_Swatch-32);}.cls-39{fill:url(#New_Gradient_Swatch-33);}.cls-40{fill:url(#New_Gradient_Swatch-34);}.cls-41{fill:url(#New_Gradient_Swatch-35);}.cls-42{fill:url(#New_Gradient_Swatch-36);}.cls-43{fill:url(#New_Gradient_Swatch-37);}.cls-44{fill:url(#New_Gradient_Swatch-38);}.cls-45{fill:url(#New_Gradient_Swatch-39);}.cls-46{fill:url(#New_Gradient_Swatch-40);}.cls-47{fill:url(#New_Gradient_Swatch-41);}.cls-48{fill:url(#New_Gradient_Swatch-42);}.cls-49{fill:url(#New_Gradient_Swatch-43);}.cls-50{fill:url(#New_Gradient_Swatch-44);}.cls-51{fill:url(#New_Gradient_Swatch-45);}.cls-52{fill:url(#New_Gradient_Swatch-46);}.cls-53{fill:url(#New_Gradient_Swatch-47);}.cls-54{fill:url(#New_Gradient_Swatch-48);}.cls-55{mix-blend-mode:multiply;}.cls-56{fill:url(#radial-gradient);}.cls-57{fill:url(#radial-gradient-2);}.cls-58{fill:url(#New_Gradient_Swatch-49);}.cls-59{fill:url(#New_Gradient_Swatch-50);}.cls-60{fill:url(#linear-gradient);}.cls-61{fill:url(#linear-gradient-2);}.cls-62{fill:url(#linear-gradient-3);}.cls-63{fill:url(#linear-gradient-4);}.cls-64{fill:url(#linear-gradient-5);}.cls-65{fill:url(#New_Gradient_Swatch-51);}.cls-66{fill:url(#New_Gradient_Swatch-52);}.cls-67{fill:url(#New_Gradient_Swatch-53);}</style><clipPath id="clip-path" transform="translate(-0.01 -3.81)"><rect class="cls-1" width="500" height="500"/></clipPath><radialGradient id="New_Gradient_Swatch" cx="3740.51" cy="-1963.84" r="168.72" gradientTransform="translate(4214.73 1718.75) rotate(-128.23)" gradientUnits="userSpaceOnUse"><stop offset="0" stop-color="#21b9ec"/><stop offset="0.58" stop-color="#07c"/><stop offset="1" stop-color="#002d48"/></radialGradient><clipPath id="clip-path-2" transform="translate(-0.01 -3.81)"><path class="cls-1" d="M316.24,292.48c-20.84,11.94-44.95,17.57-69.11,21.4-11.46,1.82-24.09,4-31.43,13-6.66,8.15-7,20.22-2.86,29.92s11.94,17.34,20.39,23.62c19.66,14.64,43.14,23.14,66.6,30.23,17.76,5.38,35.87,10.09,54.4,11.23s37.61-1.49,54-10.11c28.49-14.94,45.37-45.85,53.2-77,5.16-20.56,7.07-41.74,9.12-62.79s3.75-41,1.8-62.28c-.77-8.46-2.15-17.36-7.5-24-7-8.68-19.69-11.28-30.55-8.67s-20.17,9.56-28.24,17.29c-24.9,23.85-41.54,54.75-65.52,79.44A109.38,109.38,0,0,1,316.24,292.48Z"/></clipPath><radialGradient id="New_Gradient_Swatch-2" cx="-481.5" cy="1200.46" r="136.88" gradientTransform="matrix(0.94, -0.33, -0.33, -0.94, 1209.88, 1290.5)" xlink:href="#New_Gradient_Swatch"/><radialGradient id="New_Gradient_Swatch-3" cx="573.75" cy="-1162.73" r="347.79" gradientTransform="matrix(0.91, 0.41, 0.41, -0.91, 350.93, -1118.72)" xlink:href="#New_Gradient_Swatch"/><radialGradient id="New_Gradient_Swatch-4" cx="3385.6" cy="2444.13" r="187.23" gradientTransform="matrix(-0.49, -0.87, -0.87, 0.49, 3968.59, 2248.48)" xlink:href="#New_Gradient_Swatch"/><radialGradient id="New_Gradient_Swatch-5" cx="3391.04" cy="2434.59" r="187.19" gradientTransform="matrix(-0.49, -0.87, -0.87, 0.49, 3968.59, 2248.48)" xlink:href="#New_Gradient_Swatch"/><radialGradient id="New_Gradient_Swatch-6" cx="3396.49" cy="2425.05" r="187.16" gradientTransform="matrix(-0.49, -0.87, -0.87, 0.49, 3968.59, 2248.48)" xlink:href="#New_Gradient_Swatch"/><radialGradient id="New_Gradient_Swatch-7" cx="3401.93" cy="2415.51" r="187.12" gradientTransform="matrix(-0.49, -0.87, -0.87, 0.49, 3968.59, 2248.48)" xlink:href="#New_Gradient_Swatch"/><radialGradient id="New_Gradient_Swatch-8" cx="3407.37" cy="2405.97" r="187.09" gradientTransform="matrix(-0.49, -0.87, -0.87, 0.49, 3968.59, 2248.48)" xlink:href="#New_Gradient_Swatch"/><radialGradient id="New_Gradient_Swatch-9" cx="3412.81" cy="2396.43" r="187.05" gradientTransform="matrix(-0.49, -0.87, -0.87, 0.49, 3968.59, 2248.48)" xlink:href="#New_Gradient_Swatch"/><radialGradient id="New_Gradient_Swatch-10" cx="3418.26" cy="2386.88" r="187.02" gradientTransform="matrix(-0.49, -0.87, -0.87, 0.49, 3968.59, 2248.48)" xlink:href="#New_Gradient_Swatch"/><radialGradient id="New_Gradient_Swatch-11" cx="3423.7" cy="2377.34" r="186.98" gradientTransform="matrix(-0.49, -0.87, -0.87, 0.49, 3968.59, 2248.48)" xlink:href="#New_Gradient_Swatch"/><radialGradient id="New_Gradient_Swatch-12" cx="3429.15" cy="2367.8" r="186.95" gradientTransform="matrix(-0.49, -0.87, -0.87, 0.49, 3968.59, 2248.48)" xlink:href="#New_Gradient_Swatch"/><radialGradient id="New_Gradient_Swatch-13" cx="3434.59" cy="2358.26" r="186.91" gradientTransform="matrix(-0.49, -0.87, -0.87, 0.49, 3968.59, 2248.48)" xlink:href="#New_Gradient_Swatch"/><radialGradient id="New_Gradient_Swatch-14" cx="3440.03" cy="2348.72" r="186.88" gradientTransform="matrix(-0.49, -0.87, -0.87, 0.49, 3968.59, 2248.48)" xlink:href="#New_Gradient_Swatch"/><radialGradient id="New_Gradient_Swatch-15" cx="3445.47" cy="2339.18" r="186.84" gradientTransform="matrix(-0.49, -0.87, -0.87, 0.49, 3968.59, 2248.48)" xlink:href="#New_Gradient_Swatch"/><radialGradient id="New_Gradient_Swatch-16" cx="3450.92" cy="2329.64" r="186.81" gradientTransform="matrix(-0.49, -0.87, -0.87, 0.49, 3968.59, 2248.48)" xlink:href="#New_Gradient_Swatch"/><radialGradient id="New_Gradient_Swatch-17" cx="3456.36" cy="2320.09" r="186.77" gradientTransform="matrix(-0.49, -0.87, -0.87, 0.49, 3968.59, 2248.48)" xlink:href="#New_Gradient_Swatch"/><radialGradient id="New_Gradient_Swatch-18" cx="3461.81" cy="2310.55" r="186.74" gradientTransform="matrix(-0.49, -0.87, -0.87, 0.49, 3968.59, 2248.48)" xlink:href="#New_Gradient_Swatch"/><radialGradient id="New_Gradient_Swatch-19" cx="3467.25" cy="2301.01" r="186.71" gradientTransform="matrix(-0.49, -0.87, -0.87, 0.49, 3968.59, 2248.48)" xlink:href="#New_Gradient_Swatch"/><radialGradient id="New_Gradient_Swatch-20" cx="3472.69" cy="2291.47" r="186.67" gradientTransform="matrix(-0.49, -0.87, -0.87, 0.49, 3968.59, 2248.48)" xlink:href="#New_Gradient_Swatch"/><radialGradient id="New_Gradient_Swatch-21" cx="3478.14" cy="2281.93" r="186.64" gradientTransform="matrix(-0.49, -0.87, -0.87, 0.49, 3968.59, 2248.48)" xlink:href="#New_Gradient_Swatch"/><radialGradient id="New_Gradient_Swatch-22" cx="3483.58" cy="2272.39" r="186.6" gradientTransform="matrix(-0.49, -0.87, -0.87, 0.49, 3968.59, 2248.48)" xlink:href="#New_Gradient_Swatch"/><radialGradient id="New_Gradient_Swatch-23" cx="3489.03" cy="2262.84" r="186.57" gradientTransform="matrix(-0.49, -0.87, -0.87, 0.49, 3968.59, 2248.48)" xlink:href="#New_Gradient_Swatch"/><radialGradient id="New_Gradient_Swatch-24" cx="3494.47" cy="2253.3" r="186.53" gradientTransform="matrix(-0.49, -0.87, -0.87, 0.49, 3968.59, 2248.48)" xlink:href="#New_Gradient_Swatch"/><radialGradient id="New_Gradient_Swatch-25" cx="3499.91" cy="2243.76" r="186.5" gradientTransform="matrix(-0.49, -0.87, -0.87, 0.49, 3968.59, 2248.48)" xlink:href="#New_Gradient_Swatch"/><radialGradient id="New_Gradient_Swatch-26" cx="3505.36" cy="2234.22" r="186.46" gradientTransform="matrix(-0.49, -0.87, -0.87, 0.49, 3968.59, 2248.48)" xlink:href="#New_Gradient_Swatch"/><radialGradient id="New_Gradient_Swatch-27" cx="3510.8" cy="2224.68" r="186.43" gradientTransform="matrix(-0.49, -0.87, -0.87, 0.49, 3968.59, 2248.48)" xlink:href="#New_Gradient_Swatch"/><radialGradient id="New_Gradient_Swatch-28" cx="3516.25" cy="2215.14" r="186.39" gradientTransform="matrix(-0.49, -0.87, -0.87, 0.49, 3968.59, 2248.48)" xlink:href="#New_Gradient_Swatch"/><radialGradient id="New_Gradient_Swatch-29" cx="3521.69" cy="2205.59" r="186.36" gradientTransform="matrix(-0.49, -0.87, -0.87, 0.49, 3968.59, 2248.48)" xlink:href="#New_Gradient_Swatch"/><radialGradient id="New_Gradient_Swatch-30" cx="3527.14" cy="2196.05" r="186.32" gradientTransform="matrix(-0.49, -0.87, -0.87, 0.49, 3968.59, 2248.48)" xlink:href="#New_Gradient_Swatch"/><radialGradient id="New_Gradient_Swatch-31" cx="3532.58" cy="2186.51" r="186.29" gradientTransform="matrix(-0.49, -0.87, -0.87, 0.49, 3968.59, 2248.48)" xlink:href="#New_Gradient_Swatch"/><radialGradient id="New_Gradient_Swatch-32" cx="3538.03" cy="2176.97" r="186.26" gradientTransform="matrix(-0.49, -0.87, -0.87, 0.49, 3968.59, 2248.48)" xlink:href="#New_Gradient_Swatch"/><radialGradient id="New_Gradient_Swatch-33" cx="3543.47" cy="2167.43" r="186.22" gradientTransform="matrix(-0.49, -0.87, -0.87, 0.49, 3968.59, 2248.48)" xlink:href="#New_Gradient_Swatch"/><radialGradient id="New_Gradient_Swatch-34" cx="3548.92" cy="2157.88" r="186.19" gradientTransform="matrix(-0.49, -0.87, -0.87, 0.49, 3968.59, 2248.48)" xlink:href="#New_Gradient_Swatch"/><radialGradient id="New_Gradient_Swatch-35" cx="3554.36" cy="2148.34" r="186.15" gradientTransform="matrix(-0.49, -0.87, -0.87, 0.49, 3968.59, 2248.48)" xlink:href="#New_Gradient_Swatch"/><radialGradient id="New_Gradient_Swatch-36" cx="3559.81" cy="2138.8" r="186.12" gradientTransform="matrix(-0.49, -0.87, -0.87, 0.49, 3968.59, 2248.48)" xlink:href="#New_Gradient_Swatch"/><radialGradient id="New_Gradient_Swatch-37" cx="3565.25" cy="2129.26" r="186.08" gradientTransform="matrix(-0.49, -0.87, -0.87, 0.49, 3968.59, 2248.48)" xlink:href="#New_Gradient_Swatch"/><radialGradient id="New_Gradient_Swatch-38" cx="3570.7" cy="2119.72" r="186.05" gradientTransform="matrix(-0.49, -0.87, -0.87, 0.49, 3968.59, 2248.48)" xlink:href="#New_Gradient_Swatch"/><radialGradient id="New_Gradient_Swatch-39" cx="3576.14" cy="2110.17" r="186.01" gradientTransform="matrix(-0.49, -0.87, -0.87, 0.49, 3968.59, 2248.48)" xlink:href="#New_Gradient_Swatch"/><radialGradient id="New_Gradient_Swatch-40" cx="3581.59" cy="2100.63" r="185.98" gradientTransform="matrix(-0.49, -0.87, -0.87, 0.49, 3968.59, 2248.48)" xlink:href="#New_Gradient_Swatch"/><radialGradient id="New_Gradient_Swatch-41" cx="3587.02" cy="2091.09" r="185.94" gradientTransform="matrix(-0.49, -0.87, -0.87, 0.49, 3968.59, 2248.48)" xlink:href="#New_Gradient_Swatch"/><radialGradient id="New_Gradient_Swatch-42" cx="3592.46" cy="2081.55" r="185.9" gradientTransform="matrix(-0.49, -0.87, -0.87, 0.49, 3968.59, 2248.48)" xlink:href="#New_Gradient_Swatch"/><radialGradient id="New_Gradient_Swatch-43" cx="3597.91" cy="2072" r="185.87" gradientTransform="matrix(-0.49, -0.87, -0.87, 0.49, 3968.59, 2248.48)" xlink:href="#New_Gradient_Swatch"/><radialGradient id="New_Gradient_Swatch-44" cx="3603.36" cy="2062.46" r="185.83" gradientTransform="matrix(-0.49, -0.87, -0.87, 0.49, 3968.59, 2248.48)" xlink:href="#New_Gradient_Swatch"/><radialGradient id="New_Gradient_Swatch-45" cx="3608.8" cy="2052.92" r="185.8" gradientTransform="matrix(-0.49, -0.87, -0.87, 0.49, 3968.59, 2248.48)" xlink:href="#New_Gradient_Swatch"/><radialGradient id="New_Gradient_Swatch-46" cx="3614.25" cy="2043.38" r="185.76" gradientTransform="matrix(-0.49, -0.87, -0.87, 0.49, 3968.59, 2248.48)" xlink:href="#New_Gradient_Swatch"/><radialGradient id="New_Gradient_Swatch-47" cx="3619.69" cy="2033.83" r="185.73" gradientTransform="matrix(-0.49, -0.87, -0.87, 0.49, 3968.59, 2248.48)" xlink:href="#New_Gradient_Swatch"/><radialGradient id="New_Gradient_Swatch-48" cx="3625.14" cy="2024.29" r="185.7" gradientTransform="matrix(-0.49, -0.87, -0.87, 0.49, 3968.59, 2248.48)" xlink:href="#New_Gradient_Swatch"/><radialGradient id="radial-gradient" cx="2544.18" cy="-2084.85" r="194.61" gradientTransform="matrix(0, -0.75, 0.57, 0, 1417.27, 2264.14)" gradientUnits="userSpaceOnUse"><stop offset="0" stop-color="#009dff"/><stop offset="0.05" stop-color="#009dff" stop-opacity="0.89"/><stop offset="0.15" stop-color="#009dff" stop-opacity="0.68"/><stop offset="0.26" stop-color="#009dff" stop-opacity="0.5"/><stop offset="0.37" stop-color="#009dff" stop-opacity="0.35"/><stop offset="0.48" stop-color="#009dff" stop-opacity="0.22"/><stop offset="0.6" stop-color="#009dff" stop-opacity="0.12"/><stop offset="0.72" stop-color="#009dff" stop-opacity="0.05"/><stop offset="0.85" stop-color="#009dff" stop-opacity="0.01"/><stop offset="1" stop-color="#009dff" stop-opacity="0"/></radialGradient><radialGradient id="radial-gradient-2" cx="311.44" cy="160.76" r="101.85" gradientTransform="translate(452.8 -159.95) rotate(86.49)" gradientUnits="userSpaceOnUse"><stop offset="0" stop-color="#07c"/><stop offset="0.04" stop-color="#007ad0" stop-opacity="0.92"/><stop offset="0.17" stop-color="#0083dc" stop-opacity="0.68"/><stop offset="0.3" stop-color="#008be7" stop-opacity="0.47"/><stop offset="0.44" stop-color="#0092f0" stop-opacity="0.3"/><stop offset="0.57" stop-color="#0097f6" stop-opacity="0.17"/><stop offset="0.71" stop-color="#009afb" stop-opacity="0.07"/><stop offset="0.85" stop-color="#009cfe" stop-opacity="0.02"/><stop offset="1" stop-color="#009dff" stop-opacity="0"/></radialGradient><radialGradient id="New_Gradient_Swatch-49" cx="154.47" cy="396.14" r="37.99" gradientTransform="matrix(1, 0, 0, 1, 0, 0)" xlink:href="#New_Gradient_Swatch"/><radialGradient id="New_Gradient_Swatch-50" cx="-465.89" cy="-424.49" r="30.87" gradientTransform="matrix(0.73, -0.19, -0.19, 0.86, 729.31, 520.38)" xlink:href="#New_Gradient_Swatch"/><linearGradient id="linear-gradient" x1="291.92" y1="449.67" x2="317.1" y2="449.67" gradientUnits="userSpaceOnUse"><stop offset="0" stop-color="#07c"/><stop offset="0.58" stop-color="#002d48"/><stop offset="1" stop-color="#07c"/></linearGradient><linearGradient id="linear-gradient-2" x1="39.89" y1="402.07" x2="51.74" y2="402.07" xlink:href="#linear-gradient"/><linearGradient id="linear-gradient-3" x1="56.82" y1="289.04" x2="68.67" y2="289.04" xlink:href="#linear-gradient"/><linearGradient id="linear-gradient-4" x1="337.96" y1="422.91" x2="354.83" y2="422.91" xlink:href="#linear-gradient"/><linearGradient id="linear-gradient-5" x1="453" y1="319.82" x2="469.86" y2="319.82" xlink:href="#linear-gradient"/><radialGradient id="New_Gradient_Swatch-51" cx="414.58" cy="278.05" r="61.56" gradientTransform="matrix(1, 0, 0, 1, 0, 0)" xlink:href="#New_Gradient_Swatch"/><radialGradient id="New_Gradient_Swatch-52" cx="136.43" cy="294.97" r="61.56" gradientTransform="matrix(1, 0, 0, 1, 0, 0)" xlink:href="#New_Gradient_Swatch"/><radialGradient id="New_Gradient_Swatch-53" cx="1299.89" cy="1853.44" r="479.76" gradientTransform="matrix(0.65, 0.76, -0.76, 0.65, 728.82, -1714.52)" xlink:href="#New_Gradient_Swatch"/></defs><title>Asset 5</title><g class="cls-2"><g id="Layer_2" data-name="Layer 2"><g id="_ÎÓÈ_1" data-name="—ÎÓÈ_1"><g class="cls-3"><path class="cls-4" d="M340.72,166.86c6.09,2.31,12.57,3.17,18.8,1.45,12.3-3.39,20.18-16.16,21.6-28.84,2.07-18.6-6.9-35.67-11.49-53.18-5.18-19.74,6.73-41.62-3.52-60.17-6.32-11.43-19.7-17-32.49-19.57-21.13-4.3-43-2.88-64.39-.32-32.75,3.92-66.24,11.29-88,38.22-4.74,5.87-8.9,13-8.22,20.49.78,8.57,7.85,15.51,15.83,18.75s16.79,3.48,25.4,3.75c17.58.57,35.82,1.64,51.36,9.91,26.27,14,38.85,45.07,62.84,62.7A52.55,52.55,0,0,0,340.72,166.86Z" transform="translate(-0.01 -3.81)"/><g class="cls-5"><g class="cls-6"><path class="cls-7" d="M471.29,187a3.1,3.1,0,1,1-1.89,4A3.1,3.1,0,0,1,471.29,187Zm-14.69-4.87a3.09,3.09,0,1,0,1.88-3.93A3.08,3.08,0,0,0,456.6,182.17Zm-6.39-4.41a3.07,3.07,0,1,0,1.87-3.91A3.06,3.06,0,0,0,450.21,177.76Zm-6.45-4.4a3.11,3.11,0,1,0,1.89-4A3.1,3.1,0,0,0,443.76,173.36Zm21.29,24a3,3,0,1,0,1.85-3.88A3,3,0,0,0,465.05,197.39Zm-6.43-4.4a3.07,3.07,0,1,0,1.87-3.91A3.06,3.06,0,0,0,458.62,193Zm-6.39-4.42a3,3,0,1,0,1.86-3.88A3,3,0,0,0,452.23,188.57Zm-6.43-4.4a3.07,3.07,0,1,0,1.87-3.91A3.06,3.06,0,0,0,445.8,184.17Zm-6.37-4.43a3,3,0,1,0,1.84-3.85A3,3,0,0,0,439.43,179.74ZM433,175.32a3,3,0,1,0,1.83-3.82A3,3,0,0,0,433,175.32Zm34,32.88a3,3,0,1,0,1.84-3.85A3,3,0,0,0,467.07,208.2Zm-6.39-4.42a3,3,0,1,0,1.83-3.82A3,3,0,0,0,460.68,203.78Zm-6.41-4.41a3,3,0,1,0,1.83-3.82A3,3,0,0,0,454.27,199.37ZM447.9,195a3,3,0,1,0,1.8-3.77A3,3,0,0,0,447.9,195Zm-6.45-4.4a3,3,0,1,0,1.83-3.82A3,3,0,0,0,441.45,190.55Zm-6.39-4.41a3,3,0,1,0,1.82-3.8A3,3,0,0,0,435.06,186.14Zm-6.43-4.41a3,3,0,1,0,1.83-3.82A3,3,0,0,0,428.63,181.73Zm-6.37-4.42a3,3,0,1,0,1.81-3.77A3,3,0,0,0,422.26,177.31Zm53.26,46.1a3,3,0,1,0,1.81-3.79A3,3,0,0,0,475.52,223.41ZM469.11,219a3,3,0,1,0,1.81-3.79A3,3,0,0,0,469.11,219Zm-6.37-4.42a2.93,2.93,0,1,0,1.79-3.74A2.94,2.94,0,0,0,462.74,214.58Zm-6.45-4.39a3,3,0,1,0,1.82-3.8A3,3,0,0,0,456.29,210.19Zm-6.37-4.43a2.94,2.94,0,1,0,1.79-3.74A2.94,2.94,0,0,0,449.92,205.76Zm-6.39-4.42a2.92,2.92,0,1,0,1.78-3.71A2.91,2.91,0,0,0,443.53,201.34Zm-6.41-4.41a2.92,2.92,0,1,0,1.78-3.71A2.91,2.91,0,0,0,437.12,196.93Zm-6.38-4.41a2.89,2.89,0,1,0,1.76-3.69A2.89,2.89,0,0,0,430.74,192.52Zm-6.46-4.4a2.94,2.94,0,1,0,1.79-3.74A2.94,2.94,0,0,0,424.28,188.12Zm-6.38-4.42a2.91,2.91,0,1,0,1.77-3.71A2.9,2.9,0,0,0,417.9,183.7Zm53.23,46.12a3,3,0,1,0,1.8-3.78A3,3,0,0,0,471.13,229.82Zm-6.39-4.42a2.93,2.93,0,1,0,1.79-3.74A2.94,2.94,0,0,0,464.74,225.4ZM458.37,221a2.89,2.89,0,1,0,1.76-3.69A2.9,2.9,0,0,0,458.37,221ZM452,216.57a2.89,2.89,0,1,0,1.76-3.69A2.9,2.9,0,0,0,452,216.57Zm-6.39-4.42a2.87,2.87,0,1,0,1.75-3.66A2.88,2.88,0,0,0,445.57,212.15Zm-6.43-4.4a2.9,2.9,0,1,0,1.77-3.69A2.9,2.9,0,0,0,439.14,207.75Zm-6.39-4.42a2.87,2.87,0,1,0,1.75-3.66A2.88,2.88,0,0,0,432.75,203.33Zm-6.42-4.4a2.89,2.89,0,1,0,1.76-3.69A2.89,2.89,0,0,0,426.33,198.93ZM420,194.5a2.85,2.85,0,1,0,1.73-3.63A2.84,2.84,0,0,0,420,194.5Zm-6.39-4.41a2.83,2.83,0,1,0,1.72-3.61A2.82,2.82,0,0,0,413.57,190.09Zm-6.43-4.41a2.85,2.85,0,1,0,1.73-3.63A2.84,2.84,0,0,0,407.14,185.68Zm66.05,54.93a2.89,2.89,0,1,0,1.76-3.68A2.89,2.89,0,0,0,473.19,240.61Zm-6.41-4.41a2.89,2.89,0,1,0,1.76-3.68A2.9,2.9,0,0,0,466.78,236.2Zm-6.37-4.42a2.85,2.85,0,1,0,1.74-3.63A2.86,2.86,0,0,0,460.41,231.78Zm-6.43-4.4a2.87,2.87,0,1,0,1.75-3.66A2.88,2.88,0,0,0,454,227.38ZM447.59,223a2.85,2.85,0,1,0,1.74-3.63A2.87,2.87,0,0,0,447.59,223Zm-6.39-4.42a2.83,2.83,0,1,0,1.73-3.6A2.83,2.83,0,0,0,441.2,218.54Zm-6.4-4.41a2.82,2.82,0,1,0,1.72-3.6A2.82,2.82,0,0,0,434.8,214.13Zm-6.37-4.42a2.78,2.78,0,1,0,1.69-3.55A2.78,2.78,0,0,0,428.43,209.71Zm-6.45-4.4a2.83,2.83,0,1,0,1.72-3.6A2.82,2.82,0,0,0,422,205.31Zm-6.39-4.41a2.81,2.81,0,1,0,1.71-3.58A2.81,2.81,0,0,0,415.59,200.9Zm-6.43-4.41a2.83,2.83,0,1,0,1.72-3.6A2.82,2.82,0,0,0,409.16,196.49Zm-6.37-4.42a2.78,2.78,0,1,0,1.7-3.55A2.78,2.78,0,0,0,402.79,192.07Zm72.44,59.35a2.85,2.85,0,1,0,1.74-3.63A2.85,2.85,0,0,0,475.23,251.42ZM468.8,247a2.87,2.87,0,1,0,1.75-3.66A2.88,2.88,0,0,0,468.8,247Zm-6.39-4.42a2.85,2.85,0,1,0,1.74-3.63A2.86,2.86,0,0,0,462.41,242.6ZM456,238.18a2.81,2.81,0,1,0,1.71-3.58A2.8,2.8,0,0,0,456,238.18Zm-6.41-4.41a2.81,2.81,0,1,0,1.71-3.58A2.8,2.8,0,0,0,449.63,233.77Zm-6.38-4.42a2.78,2.78,0,1,0,1.69-3.55A2.77,2.77,0,0,0,443.25,229.35Zm-6.41-4.41a2.78,2.78,0,1,0,1.69-3.55A2.77,2.77,0,0,0,436.84,224.94Zm-6.39-4.42a2.76,2.76,0,1,0,1.68-3.52A2.75,2.75,0,0,0,430.45,220.52Zm-6.39-4.42a2.74,2.74,0,1,0,1.67-3.49A2.73,2.73,0,0,0,424.06,216.1Zm-6.41-4.4a2.74,2.74,0,1,0,1.67-3.5A2.74,2.74,0,0,0,417.65,211.7Zm-6.39-4.42a2.72,2.72,0,1,0,1.66-3.47A2.71,2.71,0,0,0,411.26,207.28Zm-6.45-4.4a2.76,2.76,0,1,0,1.68-3.52A2.77,2.77,0,0,0,404.81,202.88Zm-6.39-4.41a2.74,2.74,0,1,0,1.67-3.5A2.75,2.75,0,0,0,398.42,198.47Zm72.44,59.34a2.81,2.81,0,1,0,1.71-3.57A2.8,2.8,0,0,0,470.86,257.81Zm-6.41-4.41a2.81,2.81,0,1,0,1.71-3.57A2.8,2.8,0,0,0,464.45,253.4ZM458.08,249a2.76,2.76,0,1,0,1.69-3.52A2.76,2.76,0,0,0,458.08,249Zm-6.43-4.4a2.78,2.78,0,1,0,1.7-3.55A2.78,2.78,0,0,0,451.65,244.58Zm-6.38-4.42a2.76,2.76,0,1,0,1.68-3.52A2.75,2.75,0,0,0,445.27,240.16Zm-6.37-4.42a2.72,2.72,0,1,0,1.65-3.47A2.72,2.72,0,0,0,438.9,235.74Zm-6.41-4.41a2.72,2.72,0,1,0,1.65-3.47A2.72,2.72,0,0,0,432.49,231.33Zm-6.39-4.42a2.69,2.69,0,1,0,1.64-3.44A2.69,2.69,0,0,0,426.1,226.91Zm-6.43-4.4a2.72,2.72,0,1,0,1.65-3.47A2.72,2.72,0,0,0,419.67,222.51Zm-6.39-4.42a2.69,2.69,0,1,0,1.64-3.44A2.7,2.7,0,0,0,413.28,218.09Zm-6.39-4.42a2.67,2.67,0,1,0,1.63-3.41A2.66,2.66,0,0,0,406.89,213.67Zm-6.41-4.41a2.67,2.67,0,1,0,1.63-3.41A2.66,2.66,0,0,0,400.48,209.26Zm-6.39-4.41a2.65,2.65,0,1,0,1.62-3.39A2.66,2.66,0,0,0,394.09,204.85Zm78.79,63.78a2.78,2.78,0,1,0,1.7-3.56A2.78,2.78,0,0,0,472.88,268.63Zm-6.41-4.41a2.78,2.78,0,1,0,1.7-3.56A2.79,2.79,0,0,0,466.47,264.22Zm-6.39-4.42a2.76,2.76,0,1,0,1.69-3.52A2.76,2.76,0,0,0,460.08,259.8Zm-6.37-4.42a2.72,2.72,0,1,0,1.66-3.47A2.73,2.73,0,0,0,453.71,255.38Zm-6.4-4.41A2.72,2.72,0,1,0,449,247.5,2.71,2.71,0,0,0,447.31,251Zm-6.37-4.43a2.67,2.67,0,1,0,1.63-3.41A2.68,2.68,0,0,0,440.94,246.54Zm-6.43-4.4a2.69,2.69,0,1,0,1.64-3.44A2.69,2.69,0,0,0,434.51,242.14Zm-6.39-4.42a2.67,2.67,0,1,0,1.63-3.41A2.68,2.68,0,0,0,428.12,237.72Zm-6.37-4.42a2.63,2.63,0,1,0,1.6-3.36A2.63,2.63,0,0,0,421.75,233.3Zm-6.41-4.41a2.63,2.63,0,1,0,1.6-3.36A2.63,2.63,0,0,0,415.34,228.89ZM409,224.47a2.61,2.61,0,1,0,1.59-3.33A2.61,2.61,0,0,0,409,224.47Zm-6.45-4.39a2.65,2.65,0,1,0,1.62-3.39A2.65,2.65,0,0,0,402.5,220.08Zm-6.39-4.42a2.63,2.63,0,1,0,1.61-3.36A2.63,2.63,0,0,0,396.11,215.66Zm-6.43-4.4a2.66,2.66,0,1,0,1.62-3.39A2.66,2.66,0,0,0,389.68,211.26ZM468.53,275a2.72,2.72,0,1,0,1.66-3.46A2.72,2.72,0,0,0,468.53,275Zm-6.41-4.41a2.72,2.72,0,1,0,1.66-3.46A2.72,2.72,0,0,0,462.12,270.6Zm-6.39-4.41a2.7,2.7,0,1,0,1.65-3.44A2.7,2.7,0,0,0,455.73,266.19Zm-6.4-4.41a2.69,2.69,0,1,0,1.64-3.44A2.69,2.69,0,0,0,449.33,261.78ZM443,257.35a2.65,2.65,0,1,0,1.61-3.38A2.64,2.64,0,0,0,443,257.35Zm-6.39-4.41a2.63,2.63,0,1,0,1.6-3.36A2.63,2.63,0,0,0,436.57,252.94Zm-6.41-4.41a2.63,2.63,0,1,0,1.6-3.36A2.63,2.63,0,0,0,430.16,248.53Zm-6.39-4.42a2.61,2.61,0,1,0,1.59-3.33A2.61,2.61,0,0,0,423.77,244.11Zm-6.41-4.41a2.61,2.61,0,1,0,1.59-3.33A2.61,2.61,0,0,0,417.36,239.7ZM411,235.28a2.59,2.59,0,1,0,1.58-3.3A2.59,2.59,0,0,0,411,235.28Zm-6.39-4.41a2.57,2.57,0,1,0,1.57-3.28A2.57,2.57,0,0,0,404.58,230.87Zm-6.41-4.41a2.57,2.57,0,1,0,1.57-3.28A2.57,2.57,0,0,0,398.17,226.46ZM391.78,222a2.55,2.55,0,1,0,1.55-3.25A2.55,2.55,0,0,0,391.78,222Zm-6.45-4.4a2.59,2.59,0,1,0,1.58-3.3A2.59,2.59,0,0,0,385.33,217.64Zm85.22,68.19a2.7,2.7,0,1,0,1.65-3.45A2.7,2.7,0,0,0,470.55,285.83Zm-6.43-4.41a2.72,2.72,0,1,0,1.66-3.47A2.72,2.72,0,0,0,464.12,281.42ZM457.75,277a2.68,2.68,0,0,0,5.05-1.78,2.68,2.68,0,0,0-5.05,1.78Zm-6.36-4.42a2.63,2.63,0,1,0,1.6-3.36A2.62,2.62,0,0,0,451.39,272.58ZM445,268.17a2.63,2.63,0,1,0,1.6-3.36A2.63,2.63,0,0,0,445,268.17Zm-6.37-4.43a2.59,2.59,0,1,0,1.58-3.3A2.58,2.58,0,0,0,438.61,263.74Zm-6.43-4.4a2.61,2.61,0,1,0,1.59-3.33A2.61,2.61,0,0,0,432.18,259.34Zm-6.37-4.43a2.57,2.57,0,1,0,1.56-3.27A2.57,2.57,0,0,0,425.81,254.91Zm-6.39-4.41a2.55,2.55,0,1,0,1.55-3.25A2.55,2.55,0,0,0,419.42,250.5ZM413,246.09a2.55,2.55,0,1,0,1.55-3.25A2.55,2.55,0,0,0,413,246.09Zm-6.39-4.42a2.52,2.52,0,1,0,1.54-3.22A2.53,2.53,0,0,0,406.62,241.67Zm-6.43-4.4a2.55,2.55,0,1,0,1.55-3.25A2.55,2.55,0,0,0,400.19,237.27Zm-6.39-4.42a2.52,2.52,0,1,0,1.54-3.22A2.53,2.53,0,0,0,393.8,232.85Zm-6.39-4.42a2.5,2.5,0,1,0,1.53-3.19A2.5,2.5,0,0,0,387.41,228.43ZM381,224a2.52,2.52,0,1,0,1.54-3.22A2.53,2.53,0,0,0,381,224Zm-6.36-4.42a2.48,2.48,0,1,0,1.51-3.17A2.47,2.47,0,0,0,374.62,219.61Zm91.56,72.61a2.66,2.66,0,1,0,1.62-3.39A2.66,2.66,0,0,0,466.18,292.22Zm-6.41-4.41a2.66,2.66,0,1,0,1.62-3.38A2.66,2.66,0,0,0,459.77,287.81Zm-6.36-4.42a2.61,2.61,0,1,0,1.59-3.33A2.61,2.61,0,0,0,453.41,283.39ZM447,279a2.61,2.61,0,1,0,1.59-3.33A2.61,2.61,0,0,0,447,279Zm-6.37-4.43a2.57,2.57,0,1,0,1.56-3.27A2.56,2.56,0,0,0,440.63,274.55Zm-6.37-4.42a2.52,2.52,0,1,0,1.54-3.22A2.53,2.53,0,0,0,434.26,270.13Zm-6.41-4.41a2.52,2.52,0,1,0,1.54-3.22A2.53,2.53,0,0,0,427.85,265.72Zm-6.39-4.42a2.5,2.5,0,1,0,1.53-3.19A2.5,2.5,0,0,0,421.46,261.3ZM415,256.9a2.52,2.52,0,1,0,1.54-3.22A2.53,2.53,0,0,0,415,256.9Zm-6.39-4.42a2.5,2.5,0,1,0,1.53-3.19A2.5,2.5,0,0,0,408.64,252.48Zm-6.37-4.42a2.46,2.46,0,1,0,1.5-3.14A2.47,2.47,0,0,0,402.27,248.06Zm-6.45-4.4a2.5,2.5,0,1,0,1.53-3.19A2.5,2.5,0,0,0,395.82,243.66Zm-6.35-4.43a2.44,2.44,0,1,0,1.49-3.11A2.45,2.45,0,0,0,389.47,239.23ZM383,234.84a2.48,2.48,0,1,0,1.52-3.17A2.48,2.48,0,0,0,383,234.84Zm-6.38-4.42a2.46,2.46,0,1,0,1.49-3.14A2.45,2.45,0,0,0,376.64,230.42ZM468.2,303a2.63,2.63,0,1,0,1.61-3.36A2.64,2.64,0,0,0,468.2,303Zm-6.41-4.41a2.63,2.63,0,1,0,1.61-3.36A2.64,2.64,0,0,0,461.79,298.62Zm-6.36-4.42a2.59,2.59,0,1,0,1.57-3.3A2.59,2.59,0,0,0,455.43,294.2Zm-6.37-4.42a2.55,2.55,0,1,0,1.55-3.25A2.55,2.55,0,0,0,449.06,289.78Zm-6.41-4.41a2.55,2.55,0,1,0,1.55-3.25A2.55,2.55,0,0,0,442.65,285.37Zm-6.37-4.43a2.5,2.5,0,1,0,1.52-3.19A2.51,2.51,0,0,0,436.28,280.94Zm-6.43-4.4a2.52,2.52,0,1,0,1.54-3.22A2.53,2.53,0,0,0,429.85,276.54Zm-6.37-4.43A2.48,2.48,0,1,0,425,269,2.49,2.49,0,0,0,423.48,272.11Zm-6.37-4.42a2.44,2.44,0,1,0,1.49-3.11A2.45,2.45,0,0,0,417.11,267.69Zm-6.41-4.41a2.44,2.44,0,1,0,1.49-3.11A2.44,2.44,0,0,0,410.7,263.28Zm-6.39-4.42a2.42,2.42,0,1,0,1.48-3.08A2.43,2.43,0,0,0,404.31,258.86Zm-6.43-4.4a2.44,2.44,0,1,0,1.49-3.11A2.44,2.44,0,0,0,397.88,254.46ZM391.49,250A2.42,2.42,0,1,0,393,247,2.43,2.43,0,0,0,391.49,250Zm-6.38-4.41a2.39,2.39,0,1,0,1.45-3.06A2.39,2.39,0,0,0,385.11,245.63Zm-6.45-4.4a2.43,2.43,0,1,0,1.48-3.11A2.43,2.43,0,0,0,378.66,241.23Zm-6.35-4.43a2.37,2.37,0,1,0,1.44-3A2.37,2.37,0,0,0,372.31,236.8Zm-6.45-4.4a2.41,2.41,0,1,0,1.47-3.08A2.42,2.42,0,0,0,365.86,232.4Zm98,77a2.57,2.57,0,1,0,1.56-3.28A2.56,2.56,0,0,0,463.86,309.42ZM457.45,305a2.57,2.57,0,1,0,1.56-3.27A2.56,2.56,0,0,0,457.45,305Zm-6.37-4.42a2.53,2.53,0,1,0,1.54-3.22A2.53,2.53,0,0,0,451.08,300.59Zm-6.41-4.41a2.53,2.53,0,1,0,1.54-3.22A2.53,2.53,0,0,0,444.67,296.18Zm-6.39-4.42a2.5,2.5,0,1,0,1.52-3.19A2.51,2.51,0,0,0,438.28,291.76Zm-6.37-4.42a2.46,2.46,0,1,0,1.5-3.14A2.46,2.46,0,0,0,431.91,287.34Zm-6.41-4.41a2.46,2.46,0,1,0,1.5-3.14A2.46,2.46,0,0,0,425.5,282.93Zm-6.37-4.43a2.42,2.42,0,1,0,1.47-3.08A2.42,2.42,0,0,0,419.13,278.5Zm-6.43-4.4a2.44,2.44,0,1,0,1.49-3.11A2.45,2.45,0,0,0,412.7,274.1Zm-6.37-4.42a2.4,2.4,0,1,0,1.46-3.06A2.39,2.39,0,0,0,406.33,269.68Zm-6.39-4.42a2.38,2.38,0,1,0,1.45-3A2.38,2.38,0,0,0,399.94,265.26Zm-6.43-4.4A2.4,2.4,0,1,0,395,257.8,2.41,2.41,0,0,0,393.51,260.86Zm-6.36-4.43a2.35,2.35,0,1,0,1.43-3A2.35,2.35,0,0,0,387.15,256.43Zm-6.43-4.4a2.37,2.37,0,1,0,1.44-3A2.38,2.38,0,0,0,380.72,252Zm-6.39-4.42a2.35,2.35,0,1,0,1.43-3A2.35,2.35,0,0,0,374.33,247.61Zm-6.39-4.41a2.33,2.33,0,1,0,1.42-3A2.34,2.34,0,0,0,367.94,243.2Zm97.92,77a2.57,2.57,0,1,0,1.56-3.28A2.56,2.56,0,0,0,465.86,320.24Zm-6.37-4.42A2.53,2.53,0,1,0,461,312.6,2.51,2.51,0,0,0,459.49,315.82Zm-6.41-4.41a2.53,2.53,0,1,0,1.54-3.22A2.51,2.51,0,0,0,453.08,311.41ZM446.71,307a2.48,2.48,0,1,0,1.51-3.16A2.47,2.47,0,0,0,446.71,307Zm-6.41-4.41a2.48,2.48,0,1,0,1.51-3.16A2.47,2.47,0,0,0,440.3,302.57Zm-6.37-4.42a2.44,2.44,0,1,0,1.49-3.11A2.43,2.43,0,0,0,433.93,298.15Zm-6.41-4.41a2.44,2.44,0,1,0,1.49-3.11A2.43,2.43,0,0,0,427.52,293.74Zm-6.37-4.43a2.4,2.4,0,1,0,1.46-3.05A2.4,2.4,0,0,0,421.15,289.31Zm-6.37-4.42a2.35,2.35,0,1,0,1.44-3A2.35,2.35,0,0,0,414.78,284.89Zm-6.43-4.4a2.38,2.38,0,1,0,1.45-3A2.38,2.38,0,0,0,408.35,280.49ZM402,276.06a2.33,2.33,0,1,0,1.42-3A2.33,2.33,0,0,0,402,276.06Zm-6.43-4.4a2.35,2.35,0,1,0,1.44-3A2.35,2.35,0,0,0,395.55,271.66Zm-6.38-4.42a2.33,2.33,0,1,0,1.42-3A2.32,2.32,0,0,0,389.17,267.24Zm-6.37-4.42a2.29,2.29,0,1,0,1.39-2.92A2.28,2.28,0,0,0,382.8,262.82Zm-6.45-4.4a2.33,2.33,0,1,0,1.42-3A2.32,2.32,0,0,0,376.35,258.42ZM370,254a2.26,2.26,0,1,0,1.38-2.89A2.26,2.26,0,0,0,370,254Zm-6.45-4.39a2.31,2.31,0,1,0,1.41-2.95A2.29,2.29,0,0,0,363.55,249.6Zm-6.39-4.42a2.29,2.29,0,1,0,1.39-2.92A2.28,2.28,0,0,0,357.16,245.18Zm104.35,81.45a2.5,2.5,0,1,0,1.52-3.2A2.5,2.5,0,0,0,461.51,326.63Zm-6.41-4.41a2.5,2.5,0,1,0,1.52-3.2A2.5,2.5,0,0,0,455.1,322.22Zm-6.37-4.43a2.46,2.46,0,1,0,1.5-3.13A2.46,2.46,0,0,0,448.73,317.79Zm-6.37-4.42a2.42,2.42,0,1,0,1.47-3.08A2.4,2.4,0,0,0,442.36,313.37ZM436,309a2.42,2.42,0,1,0,1.47-3.08A2.41,2.41,0,0,0,436,309Zm-6.37-4.42a2.38,2.38,0,1,0,1.45-3A2.37,2.37,0,0,0,429.58,304.54Zm-6.41-4.41a2.38,2.38,0,1,0,1.45-3A2.37,2.37,0,0,0,423.17,300.13Zm-6.37-4.43a2.33,2.33,0,1,0,1.42-3A2.33,2.33,0,0,0,416.8,295.7Zm-6.43-4.4a2.35,2.35,0,1,0,1.44-3A2.35,2.35,0,0,0,410.37,291.3ZM404,286.88a2.31,2.31,0,1,0,1.41-2.95A2.31,2.31,0,0,0,404,286.88Zm-6.36-4.43a2.26,2.26,0,1,0,1.38-2.89A2.26,2.26,0,0,0,397.64,282.45Zm-6.43-4.4a2.29,2.29,0,1,0,1.39-2.92A2.28,2.28,0,0,0,391.21,278.05Zm-6.37-4.43a2.24,2.24,0,1,0,1.36-2.86A2.24,2.24,0,0,0,384.84,273.62Zm-6.43-4.4a2.26,2.26,0,1,0,1.38-2.89A2.26,2.26,0,0,0,378.41,269.22ZM372,264.8a2.24,2.24,0,1,0,1.37-2.86A2.23,2.23,0,0,0,372,264.8Zm-6.39-4.41a2.22,2.22,0,1,0,1.35-2.84A2.22,2.22,0,0,0,365.63,260.39Zm-6.45-4.4a2.26,2.26,0,1,0,1.38-2.89A2.26,2.26,0,0,0,359.18,256Zm-6.35-4.43a2.2,2.2,0,1,0,1.34-2.81A2.19,2.19,0,0,0,352.83,251.56ZM457.16,333a2.44,2.44,0,1,0,1.48-3.11A2.43,2.43,0,0,0,457.16,333Zm-6.43-4.41a2.46,2.46,0,1,0,1.5-3.14A2.46,2.46,0,0,0,450.73,328.61Zm-6.35-4.43a2.39,2.39,0,1,0,1.46-3.05A2.4,2.4,0,0,0,444.38,324.18ZM438,319.77a2.4,2.4,0,1,0,1.46-3A2.4,2.4,0,0,0,438,319.77Zm-6.37-4.42a2.35,2.35,0,1,0,1.43-3A2.36,2.36,0,0,0,431.6,315.35Zm-6.41-4.41a2.35,2.35,0,1,0,1.43-3A2.36,2.36,0,0,0,425.19,310.94Zm-6.39-4.42a2.33,2.33,0,1,0,1.42-3A2.34,2.34,0,0,0,418.8,306.52Zm-6.35-4.43a2.27,2.27,0,1,0,1.38-2.89A2.27,2.27,0,0,0,412.45,302.09Zm-6.43-4.4a2.29,2.29,0,1,0,1.4-2.92A2.29,2.29,0,0,0,406,297.69Zm-6.36-4.43A2.24,2.24,0,1,0,401,290.4,2.24,2.24,0,0,0,399.66,293.26Zm-6.43-4.4a2.26,2.26,0,1,0,1.38-2.89A2.26,2.26,0,0,0,393.23,288.86Zm-6.37-4.42a2.22,2.22,0,1,0,1.35-2.84A2.22,2.22,0,0,0,386.86,284.44ZM380.47,280a2.2,2.2,0,1,0,1.34-2.81A2.19,2.19,0,0,0,380.47,280Zm-6.43-4.4a2.22,2.22,0,1,0,1.35-2.84A2.22,2.22,0,0,0,374,275.62Zm-6.37-4.43a2.18,2.18,0,1,0,1.33-2.78A2.18,2.18,0,0,0,367.67,271.19Zm-6.43-4.4a2.2,2.2,0,1,0,1.34-2.81A2.19,2.19,0,0,0,361.24,266.79Zm-6.39-4.42a2.18,2.18,0,1,0,1.33-2.78A2.18,2.18,0,0,0,354.85,262.37Zm104.31,81.47a2.44,2.44,0,1,0,1.48-3.12A2.44,2.44,0,0,0,459.16,343.84Zm-6.41-4.41a2.44,2.44,0,1,0,1.48-3.12A2.44,2.44,0,0,0,452.75,339.43ZM446.38,335a2.39,2.39,0,1,0,1.46-3.05A2.4,2.4,0,0,0,446.38,335ZM440,330.58a2.35,2.35,0,1,0,1.43-3A2.36,2.36,0,0,0,440,330.58Zm-6.41-4.41a2.35,2.35,0,1,0,1.43-3A2.36,2.36,0,0,0,433.6,326.17Zm-6.35-4.43a2.29,2.29,0,1,0,1.4-2.92A2.29,2.29,0,0,0,427.25,321.74Zm-6.43-4.41a2.31,2.31,0,1,0,1.41-2.94A2.31,2.31,0,0,0,420.82,317.33Zm-6.37-4.42a2.27,2.27,0,1,0,1.38-2.89A2.27,2.27,0,0,0,414.45,312.91ZM408,308.5a2.27,2.27,0,1,0,1.39-2.89A2.27,2.27,0,0,0,408,308.5Zm-6.36-4.42a2.22,2.22,0,1,0,1.35-2.84A2.21,2.21,0,0,0,401.68,304.08Zm-6.37-4.43a2.18,2.18,0,1,0,1.32-2.78A2.17,2.17,0,0,0,395.31,299.65Zm-6.43-4.4a2.2,2.2,0,1,0,1.34-2.81A2.21,2.21,0,0,0,388.88,295.25Zm-6.37-4.43a2.16,2.16,0,1,0,1.31-2.75A2.15,2.15,0,0,0,382.51,290.82Zm-6.43-4.4a2.18,2.18,0,1,0,1.33-2.78A2.17,2.17,0,0,0,376.08,286.42ZM369.71,282a2.14,2.14,0,1,0,1.3-2.73A2.14,2.14,0,0,0,369.71,282Zm-6.39-4.42a2.12,2.12,0,1,0,1.29-2.7A2.12,2.12,0,0,0,363.32,277.58Zm-6.45-4.39a2.16,2.16,0,1,0,1.32-2.76A2.15,2.15,0,0,0,356.87,273.19Zm-6.35-4.44a2.09,2.09,0,1,0,1.28-2.67A2.1,2.1,0,0,0,350.52,268.75Zm-6.45-4.39a2.14,2.14,0,1,0,1.3-2.73A2.15,2.15,0,0,0,344.07,264.36Zm110.72,85.87a2.39,2.39,0,1,0,1.46-3.06A2.39,2.39,0,0,0,454.79,350.23Zm-6.41-4.41a2.39,2.39,0,1,0,1.46-3.06A2.39,2.39,0,0,0,448.38,345.82ZM442,341.4a2.35,2.35,0,1,0,1.43-3A2.36,2.36,0,0,0,442,341.4ZM435.6,337a2.35,2.35,0,1,0,1.43-3A2.36,2.36,0,0,0,435.6,337Zm-6.35-4.43a2.29,2.29,0,1,0,1.4-2.92A2.29,2.29,0,0,0,429.25,332.56Zm-6.37-4.43a2.24,2.24,0,1,0,4.23-1.49,2.24,2.24,0,1,0-4.23,1.49Zm-6.41-4.41a2.26,2.26,0,0,0,2.87,1.37,2.24,2.24,0,1,0-2.87-1.37Zm-6.36-4.42a2.2,2.2,0,1,0,1.34-2.81A2.2,2.2,0,0,0,410.11,319.3Zm-6.41-4.41a2.2,2.2,0,1,0,1.34-2.81A2.2,2.2,0,0,0,403.7,314.89Zm-6.37-4.43a2.15,2.15,0,1,0,1.31-2.75A2.15,2.15,0,0,0,397.33,310.46Zm-6.43-4.4a2.18,2.18,0,1,0,1.33-2.78A2.17,2.17,0,0,0,390.9,306.06Zm-6.37-4.42a2.14,2.14,0,1,0,1.3-2.73A2.13,2.13,0,0,0,384.53,301.64Zm-6.37-4.43a2.09,2.09,0,1,0,1.28-2.67A2.1,2.1,0,0,0,378.16,297.21Zm-6.43-4.4a2.12,2.12,0,1,0,1.29-2.7A2.12,2.12,0,0,0,371.73,292.81Zm-6.37-4.42a2.07,2.07,0,1,0,1.26-2.65A2.08,2.08,0,0,0,365.36,288.39ZM358.93,284a2.09,2.09,0,1,0,1.28-2.67A2.1,2.1,0,0,0,358.93,284Zm-6.39-4.41a2.07,2.07,0,1,0,1.26-2.65A2.08,2.08,0,0,0,352.54,279.57Zm-6.39-4.42a2.05,2.05,0,1,0,1.25-2.62A2.05,2.05,0,0,0,346.15,275.15Zm-6.45-4.4a2.09,2.09,0,1,0,1.28-2.67A2.1,2.1,0,0,0,339.7,270.75Zm117.09,90.3a2.39,2.39,0,1,0,1.46-3.06A2.39,2.39,0,0,0,456.79,361.05Zm-6.41-4.41a2.39,2.39,0,1,0,1.46-3.06A2.39,2.39,0,0,0,450.38,356.64ZM444,352.22a2.35,2.35,0,1,0,1.43-3A2.36,2.36,0,0,0,444,352.22Zm-6.35-4.44a2.29,2.29,0,1,0,1.39-2.91A2.29,2.29,0,0,0,437.66,347.78Zm-6.41-4.41a2.29,2.29,0,1,0,1.4-2.91A2.29,2.29,0,0,0,431.25,343.37Zm-6.35-4.43a2.22,2.22,0,1,0,1.36-2.83A2.23,2.23,0,0,0,424.9,338.94Zm-6.43-4.4a2.24,2.24,0,1,0,1.37-2.86A2.26,2.26,0,0,0,418.47,334.54Zm-6.34-4.43a2.17,2.17,0,1,0,1.32-2.78A2.18,2.18,0,0,0,412.13,330.11Zm-6.37-4.43a2.13,2.13,0,1,0,1.3-2.72A2.13,2.13,0,0,0,405.76,325.68Zm-6.41-4.4a2.13,2.13,0,1,0,1.3-2.73A2.13,2.13,0,0,0,399.35,321.28ZM393,316.85a2.09,2.09,0,1,0,1.27-2.67A2.1,2.1,0,0,0,393,316.85Zm-6.43-4.4a2.11,2.11,0,1,0,1.29-2.7A2.12,2.12,0,0,0,386.55,312.45ZM380.18,308a2.07,2.07,0,1,0,1.26-2.64A2.07,2.07,0,0,0,380.18,308Zm-6.43-4.4A2.09,2.09,0,1,0,375,301,2.1,2.1,0,0,0,373.75,303.62Zm-6.37-4.42a2.05,2.05,0,1,0,1.25-2.62A2.07,2.07,0,0,0,367.38,299.2ZM361,294.77a2,2,0,1,0,1.23-2.56A2,2,0,0,0,361,294.77Zm-6.45-4.39a2.05,2.05,0,1,0,1.25-2.62A2.06,2.06,0,0,0,354.56,290.38ZM348.19,286a2,2,0,1,0,1.23-2.56A2,2,0,0,0,348.19,286Zm-6.43-4.4A2,2,0,1,0,343,279,2,2,0,0,0,341.76,281.55Zm-6.39-4.42a2,2,0,1,0,1.23-2.56A2,2,0,0,0,335.37,277.13Zm117.05,90.31a2.35,2.35,0,1,0,1.43-3A2.35,2.35,0,0,0,452.42,367.44ZM446,363a2.35,2.35,0,1,0,1.43-3A2.35,2.35,0,0,0,446,363Zm-6.35-4.43a2.29,2.29,0,1,0,1.39-2.91A2.29,2.29,0,0,0,439.66,358.6Zm-6.41-4.41a2.29,2.29,0,1,0,4.31-1.52,2.29,2.29,0,0,0-4.31,1.52Zm-6.35-4.43a2.22,2.22,0,1,0,1.36-2.83A2.23,2.23,0,0,0,426.9,349.76Zm-6.37-4.42a2.18,2.18,0,1,0,1.33-2.78A2.19,2.19,0,0,0,420.53,345.34Zm-6.41-4.41a2.18,2.18,0,1,0,4.11-1.45,2.18,2.18,0,1,0-4.11,1.45Zm-6.34-4.43a2.11,2.11,0,1,0,1.28-2.7A2.12,2.12,0,0,0,407.78,336.5Zm-6.43-4.41a2.13,2.13,0,1,0,1.3-2.72A2.13,2.13,0,0,0,401.35,332.09ZM395,327.66a2.07,2.07,0,1,0,1.26-2.64A2.07,2.07,0,0,0,395,327.66Zm-6.43-4.4a2.09,2.09,0,1,0,1.27-2.67A2.1,2.1,0,0,0,388.57,323.26Zm-6.37-4.42a2,2,0,1,0,3.86-1.37,2,2,0,1,0-3.86,1.37Zm-6.37-4.43a2,2,0,1,0,1.22-2.56A2,2,0,0,0,375.83,314.41ZM369.4,310a2,2,0,1,0,1.24-2.59A2,2,0,0,0,369.4,310ZM363,305.59a2,2,0,1,0,1.21-2.54A2,2,0,0,0,363,305.59Zm-6.43-4.41a2,2,0,1,0,1.23-2.56A2,2,0,0,0,356.6,301.18Zm-6.37-4.42a2,2,0,1,0,1.2-2.51A2,2,0,0,0,350.23,296.76Zm-6.39-4.42a1.95,1.95,0,1,0,1.19-2.48A2,2,0,0,0,343.84,292.34ZM337.39,288a2,2,0,1,0,1.21-2.54A2,2,0,0,0,337.39,288Zm-6.34-4.44a1.92,1.92,0,1,0,1.17-2.45A1.93,1.93,0,0,0,331.05,283.51Zm-6.45-4.39a2,2,0,1,0,1.19-2.51A2,2,0,0,0,324.6,279.12Zm117.06,90.3a2.29,2.29,0,1,0,1.39-2.92A2.29,2.29,0,0,0,441.66,369.42ZM435.31,365a2.22,2.22,0,1,0,1.36-2.83A2.21,2.21,0,0,0,435.31,365Zm-6.41-4.41a2.22,2.22,0,1,0,1.36-2.83A2.21,2.21,0,0,0,428.9,360.58Zm-6.37-4.42a2.18,2.18,0,1,0,1.33-2.78A2.19,2.19,0,0,0,422.53,356.16Zm-6.41-4.41a2.18,2.18,0,1,0,4.11-1.45,2.18,2.18,0,0,0-4.11,1.45Zm-6.34-4.43a2.11,2.11,0,1,0,1.28-2.7A2.1,2.1,0,0,0,409.78,347.32Zm-6.37-4.43a2.07,2.07,0,1,0,1.26-2.64A2.06,2.06,0,0,0,403.41,342.89ZM397,338.48a2.07,2.07,0,1,0,1.26-2.64A2.06,2.06,0,0,0,397,338.48Zm-6.37-4.42a2,2,0,1,0,1.24-2.59A2,2,0,0,0,390.63,334.06Zm-6.41-4.41a2,2,0,1,0,1.24-2.59A2,2,0,0,0,384.22,329.65Zm-6.37-4.43a2,2,0,1,0,1.21-2.53A2,2,0,0,0,377.85,325.22Zm-6.43-4.4a2,2,0,1,0,1.22-2.56A2,2,0,0,0,371.42,320.82Zm-6.37-4.42a2,2,0,1,0,1.2-2.51A2,2,0,0,0,365.05,316.4ZM358.68,312a1.92,1.92,0,1,0,1.17-2.45A1.92,1.92,0,0,0,358.68,312Zm-6.43-4.4a1.94,1.94,0,1,0,1.19-2.48A1.94,1.94,0,0,0,352.25,307.57Zm-6.36-4.42a1.89,1.89,0,1,0,1.15-2.43A1.89,1.89,0,0,0,345.89,303.15Zm-6.43-4.41a1.92,1.92,0,1,0,1.17-2.45A1.91,1.91,0,0,0,339.46,298.74Zm-6.39-4.41a1.9,1.9,0,1,0,1.15-2.43A1.89,1.89,0,0,0,333.07,294.33Zm-6.39-4.42a1.88,1.88,0,0,0,3.54-1.25,1.88,1.88,0,1,0-3.54,1.25Zm117,90.34a2.31,2.31,0,1,0,1.41-2.95A2.32,2.32,0,0,0,443.64,380.25Zm-6.35-4.43a2.24,2.24,0,1,0,1.37-2.87A2.24,2.24,0,0,0,437.29,375.82Zm-6.39-4.42a2.22,2.22,0,1,0,1.36-2.83A2.21,2.21,0,0,0,430.9,371.4ZM424.53,367a2.18,2.18,0,1,0,1.33-2.78A2.17,2.17,0,0,0,424.53,367Zm-6.34-4.43a2.11,2.11,0,1,0,1.28-2.7A2.1,2.1,0,0,0,418.19,362.55Zm-6.41-4.41a2.11,2.11,0,1,0,1.28-2.7A2.1,2.1,0,0,0,411.78,358.14Zm-6.37-4.43a2.07,2.07,0,1,0,1.26-2.64A2.07,2.07,0,0,0,405.41,353.71ZM399,349.3a2.07,2.07,0,1,0,1.26-2.64A2.06,2.06,0,0,0,399,349.3Zm-6.35-4.43a2,2,0,1,0,1.22-2.56A2,2,0,0,0,392.65,344.87Zm-6.37-4.42a2,2,0,1,0,1.2-2.51A2,2,0,0,0,386.28,340.45ZM379.87,336a2,2,0,1,0,1.2-2.51A2,2,0,0,0,379.87,336Zm-6.37-4.43a1.92,1.92,0,1,0,1.17-2.45A1.92,1.92,0,0,0,373.5,331.61Zm-6.43-4.4a1.94,1.94,0,1,0,1.19-2.48A1.94,1.94,0,0,0,367.07,327.21Zm-6.35-4.43a1.88,1.88,0,1,0,1.15-2.4A1.87,1.87,0,0,0,360.72,322.78Zm-6.43-4.4a1.91,1.91,0,0,0,2.43,1.15,1.9,1.9,0,1,0-2.43-1.15ZM347.91,314a1.87,1.87,0,1,0,1.14-2.4A1.86,1.86,0,0,0,347.91,314Zm-6.37-4.43a1.83,1.83,0,1,0,1.11-2.34A1.82,1.82,0,0,0,341.54,309.53Zm-6.45-4.39a1.88,1.88,0,0,0,3.54-1.25,1.88,1.88,0,1,0-3.54,1.25Zm-6.37-4.43a1.82,1.82,0,0,0,2.34,1.12,1.83,1.83,0,1,0-2.34-1.12Zm-6.43-4.4a1.85,1.85,0,1,0,1.13-2.37A1.85,1.85,0,0,0,322.29,296.31Zm-6.39-4.41a1.84,1.84,0,1,0,1.12-2.34A1.83,1.83,0,0,0,315.9,291.9Zm123.37,94.74a2.26,2.26,0,1,0,1.38-2.89A2.26,2.26,0,0,0,439.27,386.64Zm-6.33-4.43a2.18,2.18,0,1,0,1.33-2.79A2.18,2.18,0,0,0,432.94,382.21Zm-6.41-4.41a2.18,2.18,0,1,0,1.33-2.78A2.17,2.17,0,0,0,426.53,377.8Zm-6.35-4.44a2.11,2.11,0,1,0,1.29-2.69A2.11,2.11,0,0,0,420.18,373.36Zm-6.4-4.41a2.11,2.11,0,1,0,1.28-2.69A2.1,2.1,0,0,0,413.78,369Zm-6.37-4.42a2.07,2.07,0,1,0,1.26-2.64A2.07,2.07,0,0,0,407.41,364.53Zm-6.35-4.43a2,2,0,1,0,1.22-2.56A2,2,0,0,0,401.06,360.1Zm-6.41-4.41a2,2,0,1,0,1.22-2.56A2,2,0,0,0,394.65,355.69Zm-6.35-4.43a1.94,1.94,0,1,0,1.18-2.48A1.94,1.94,0,0,0,388.3,351.26Zm-6.43-4.4a2,2,0,1,0,1.2-2.51A2,2,0,0,0,381.87,346.86Zm-6.35-4.44a1.9,1.9,0,1,0,1.16-2.42A1.9,1.9,0,0,0,375.52,342.42ZM369.15,338a1.86,1.86,0,1,0,1.13-2.37A1.85,1.85,0,0,0,369.15,338Zm-6.43-4.4a1.88,1.88,0,0,0,2.4,1.14,1.88,1.88,0,0,0-1.25-3.54A1.89,1.89,0,0,0,362.72,333.6Zm-6.37-4.43a1.83,1.83,0,1,0,1.12-2.34A1.83,1.83,0,0,0,356.35,329.17Zm-6.42-4.4a1.85,1.85,0,1,0,1.13-2.37A1.85,1.85,0,0,0,349.93,324.77Zm-6.35-4.43a1.79,1.79,0,1,0,1.09-2.29A1.79,1.79,0,0,0,343.58,320.34Zm-6.45-4.4a1.83,1.83,0,1,0,1.11-2.34A1.82,1.82,0,0,0,337.13,315.94Zm-6.37-4.42a1.79,1.79,0,1,0,1.09-2.29A1.79,1.79,0,0,0,330.76,311.52Zm-6.39-4.42a1.77,1.77,0,1,0,1.08-2.25A1.77,1.77,0,0,0,324.37,307.1Zm-6.45-4.39a1.81,1.81,0,0,0,3.42-1.21,1.81,1.81,0,1,0-3.42,1.21Zm-6.39-4.42a1.79,1.79,0,1,0,1.09-2.28A1.79,1.79,0,0,0,311.53,298.29Zm-6.41-4.41a1.79,1.79,0,1,0,1.09-2.28A1.79,1.79,0,0,0,305.12,293.88ZM434.92,393a2.2,2.2,0,1,0,1.34-2.81A2.19,2.19,0,0,0,434.92,393Zm-6.39-4.41a2.18,2.18,0,1,0,1.33-2.79A2.18,2.18,0,0,0,428.53,388.62Zm-6.37-4.43a2.14,2.14,0,1,0,1.31-2.72A2.14,2.14,0,0,0,422.16,384.19Zm-6.34-4.43a2.07,2.07,0,1,0,1.26-2.64A2.07,2.07,0,0,0,415.82,379.76Zm-6.41-4.41a2.07,2.07,0,1,0,1.26-2.64A2.07,2.07,0,0,0,409.41,375.35Zm-6.35-4.43a2,2,0,1,0,1.22-2.56A2,2,0,0,0,403.06,370.92Zm-6.41-4.41a2,2,0,1,0,1.22-2.56A2,2,0,0,0,396.65,366.51Zm-6.35-4.43a1.94,1.94,0,1,0,1.18-2.48A1.94,1.94,0,0,0,390.3,362.08Zm-6.37-4.43a1.9,1.9,0,1,0,1.16-2.42A1.9,1.9,0,0,0,383.93,357.65Zm-6.41-4.41a1.9,1.9,0,1,0,1.16-2.42A1.9,1.9,0,0,0,377.52,353.24Zm-6.37-4.42a1.86,1.86,0,1,0,1.13-2.37A1.85,1.85,0,0,0,371.15,348.82Zm-6.41-4.41a1.86,1.86,0,1,0,1.13-2.37A1.86,1.86,0,0,0,364.74,344.41ZM358.37,340a1.82,1.82,0,0,0,2.32,1.1,1.81,1.81,0,0,0-1.21-3.42A1.83,1.83,0,0,0,358.37,340Zm-6.4-4.41a1.81,1.81,0,1,0,1.1-2.32A1.81,1.81,0,0,0,352,335.58Zm-6.37-4.43a1.77,1.77,0,1,0,1.07-2.26A1.76,1.76,0,0,0,345.6,331.15Zm-6.39-4.42a1.74,1.74,0,1,0,1.06-2.23A1.75,1.75,0,0,0,339.21,326.73Zm-6.43-4.4a1.77,1.77,0,1,0,1.08-2.26A1.76,1.76,0,0,0,332.78,322.33Zm-6.37-4.42a1.72,1.72,0,1,0,1-2.2A1.72,1.72,0,0,0,326.41,317.91ZM320,313.5a1.74,1.74,0,1,0,1.06-2.23A1.75,1.75,0,0,0,320,313.5Zm-6.39-4.41a1.72,1.72,0,1,0,1.05-2.2A1.72,1.72,0,0,0,313.59,309.09Zm-6.41-4.41a1.73,1.73,0,1,0,1.05-2.2A1.72,1.72,0,0,0,307.18,304.68Zm-6.43-4.4a1.75,1.75,0,1,0,1.07-2.23A1.75,1.75,0,0,0,300.75,300.28Zm129.8,99.15a2.16,2.16,0,1,0,1.32-2.76A2.16,2.16,0,0,0,430.55,399.43ZM424.16,395a2.14,2.14,0,1,0,1.31-2.73A2.14,2.14,0,0,0,424.16,395Zm-6.37-4.42a2.1,2.1,0,1,0,1.28-2.67A2.1,2.1,0,0,0,417.79,390.59Zm-6.38-4.42a2.07,2.07,0,1,0,1.26-2.64A2.07,2.07,0,0,0,411.41,386.17Zm-6.35-4.43a2,2,0,1,0,1.22-2.56A2,2,0,0,0,405.06,381.74Zm-6.37-4.43a2,2,0,1,0,1.2-2.5A2,2,0,0,0,398.69,377.31Zm-6.39-4.41a1.94,1.94,0,1,0,1.18-2.48A1.94,1.94,0,0,0,392.3,372.9Zm-6.37-4.43a1.9,1.9,0,1,0,1.16-2.42A1.9,1.9,0,0,0,385.93,368.47Zm-6.41-4.41a1.9,1.9,0,1,0,1.16-2.42A1.9,1.9,0,0,0,379.52,364.06Zm-6.35-4.43a1.83,1.83,0,1,0,1.12-2.34A1.83,1.83,0,0,0,373.17,359.63Zm-6.37-4.42a1.79,1.79,0,1,0,1.1-2.29A1.8,1.8,0,0,0,366.8,355.21Zm-6.41-4.41a1.79,1.79,0,1,0,1.1-2.29A1.8,1.8,0,0,0,360.39,350.8ZM354,346.37a1.74,1.74,0,1,0,1.06-2.23A1.75,1.75,0,0,0,354,346.37ZM347.6,342a1.77,1.77,0,1,0,1.07-2.26A1.77,1.77,0,0,0,347.6,342Zm-6.35-4.43a1.7,1.7,0,1,0,1-2.18A1.7,1.7,0,0,0,341.25,337.54Zm-6.43-4.4a1.72,1.72,0,1,0,1.05-2.21A1.72,1.72,0,0,0,334.82,333.14Zm-6.39-4.42a1.7,1.7,0,1,0,1-2.18A1.7,1.7,0,0,0,328.43,328.72Zm-6.37-4.42a1.66,1.66,0,0,0,3.13-1.11,1.66,1.66,0,1,0-3.13,1.11Zm-6.45-4.4a1.7,1.7,0,1,0,1-2.17A1.71,1.71,0,0,0,315.61,319.9Zm-6.39-4.42a1.68,1.68,0,1,0,1-2.14A1.68,1.68,0,0,0,309.22,315.48Zm-6.41-4.41a1.68,1.68,0,1,0,1-2.14A1.68,1.68,0,0,0,302.81,311.07Zm-6.41-4.41a1.69,1.69,0,1,0,1-2.14A1.68,1.68,0,0,0,296.4,306.66ZM290,302.25a1.67,1.67,0,1,0,1-2.12A1.67,1.67,0,0,0,290,302.25Zm142.54,108a2.16,2.16,0,1,0,1.32-2.76A2.16,2.16,0,0,0,432.55,410.25Zm-6.41-4.41a2.16,2.16,0,1,0,1.32-2.76A2.16,2.16,0,0,0,426.14,405.84Zm-6.35-4.43a2.1,2.1,0,1,0,1.28-2.68A2.11,2.11,0,0,0,419.79,401.41ZM413.45,397a2,2,0,1,0,1.23-2.58A2,2,0,0,0,413.45,397ZM407,392.56a2,2,0,1,0,1.23-2.58A2,2,0,0,0,407,392.56Zm-6.35-4.43a2,2,0,1,0,1.19-2.5A2,2,0,0,0,400.69,388.13Zm-6.41-4.41a2,2,0,1,0,1.2-2.5A2,2,0,0,0,394.28,383.72Zm-6.35-4.43a1.9,1.9,0,1,0,1.16-2.42A1.9,1.9,0,0,0,387.93,379.29Zm-6.35-4.43a1.83,1.83,0,1,0,1.12-2.34A1.84,1.84,0,0,0,381.58,374.86Zm-6.41-4.41a1.83,1.83,0,1,0,1.12-2.34A1.83,1.83,0,0,0,375.17,370.45ZM368.8,366a1.79,1.79,0,1,0,1.1-2.29A1.8,1.8,0,0,0,368.8,366Zm-6.41-4.41a1.79,1.79,0,1,0,1.1-2.29A1.8,1.8,0,0,0,362.39,361.62Zm-6.34-4.43A1.73,1.73,0,1,0,357.1,355,1.73,1.73,0,0,0,356.05,357.19Zm-6.37-4.43a1.68,1.68,0,1,0,1-2.15A1.68,1.68,0,0,0,349.68,352.76Zm-6.43-4.4a1.7,1.7,0,1,0,1-2.18A1.7,1.7,0,0,0,343.25,348.36Zm-6.37-4.43a1.66,1.66,0,1,0,1-2.12A1.66,1.66,0,0,0,336.88,343.93Zm-6.41-4.41a1.66,1.66,0,1,0,1-2.12A1.67,1.67,0,0,0,330.47,339.52Zm-6.39-4.41a1.64,1.64,0,1,0,1-2.1A1.64,1.64,0,0,0,324.08,335.11Zm-6.41-4.41a1.64,1.64,0,1,0,1-2.09A1.64,1.64,0,0,0,317.67,330.7Zm-6.39-4.42a1.62,1.62,0,1,0,3.05-1.08,1.62,1.62,0,0,0-3.05,1.08Zm-6.39-4.42a1.6,1.6,0,1,0,3-1.06,1.6,1.6,0,0,0-3,1.06Zm-6.45-4.39a1.64,1.64,0,0,0,3.09-1.09,1.64,1.64,0,0,0-3.09,1.09Zm-6.39-4.42A1.62,1.62,0,1,0,295.1,312a1.62,1.62,0,0,0-3.05,1.08Zm-6.41-4.41a1.62,1.62,0,1,0,3.05-1.08,1.62,1.62,0,0,0-3.05,1.08Zm-6.41-4.41a1.62,1.62,0,1,0,1-2.06A1.63,1.63,0,0,0,279.23,304.23Zm142.56,108a2.09,2.09,0,1,0,1.28-2.67A2.1,2.1,0,0,0,421.79,412.22Zm-6.36-4.42a2,2,0,1,0,3.86-1.37,2,2,0,1,0-3.86,1.37ZM409,403.38a2,2,0,1,0,1.23-2.58A2,2,0,0,0,409,403.38ZM402.67,399a2,2,0,1,0,1.21-2.53A2,2,0,0,0,402.67,399Zm-6.35-4.43a1.92,1.92,0,1,0,1.17-2.45A1.92,1.92,0,0,0,396.32,394.53Zm-6.39-4.42a1.9,1.9,0,1,0,1.16-2.42A1.9,1.9,0,0,0,389.93,390.11Zm-6.35-4.43a1.83,1.83,0,1,0,1.12-2.34A1.83,1.83,0,0,0,383.58,385.68Zm-6.41-4.41a1.83,1.83,0,1,0,1.12-2.34A1.85,1.85,0,0,0,377.17,381.27Zm-6.37-4.42a1.79,1.79,0,1,0,1.09-2.29A1.8,1.8,0,0,0,370.8,376.85Zm-6.34-4.44a1.72,1.72,0,1,0,1.05-2.2A1.73,1.73,0,0,0,364.46,372.41ZM358.05,368a1.72,1.72,0,1,0,1.05-2.2A1.73,1.73,0,0,0,358.05,368Zm-6.37-4.42a1.68,1.68,0,1,0,1-2.15A1.68,1.68,0,0,0,351.68,363.58Zm-6.41-4.41a1.68,1.68,0,1,0,1-2.15A1.68,1.68,0,0,0,345.27,359.17Zm-6.35-4.43a1.62,1.62,0,1,0,1-2.07A1.63,1.63,0,0,0,338.92,354.74Zm-6.37-4.43a1.58,1.58,0,1,0,1-2A1.58,1.58,0,0,0,332.55,350.31Zm-6.43-4.4a1.6,1.6,0,1,0,1-2A1.61,1.61,0,0,0,326.12,345.91Zm-6.39-4.41a1.58,1.58,0,1,0,1-2A1.58,1.58,0,0,0,319.73,341.5Zm-6.43-4.41a1.6,1.6,0,1,0,3-1.06,1.6,1.6,0,0,0-3,1.06Zm-6.39-4.41a1.58,1.58,0,1,0,1-2A1.58,1.58,0,0,0,306.91,332.68Zm-6.41-4.41a1.58,1.58,0,1,0,1-2A1.58,1.58,0,0,0,300.5,328.27Zm-6.39-4.42a1.55,1.55,0,1,0,2.93-1,1.55,1.55,0,0,0-2.93,1Zm-6.41-4.41a1.55,1.55,0,1,0,2.93-1,1.55,1.55,0,0,0-2.93,1Zm-6.45-4.4a1.6,1.6,0,1,0,3-1.06,1.6,1.6,0,0,0-3,1.06Zm-6.41-4.41a1.6,1.6,0,1,0,1-2A1.6,1.6,0,0,0,274.84,310.63Zm-6.4-4.41a1.59,1.59,0,0,0,2,1,1.6,1.6,0,1,0-1.06-3A1.58,1.58,0,0,0,268.44,306.22Zm142.62,108a2,2,0,1,0,1.22-2.57A2,2,0,0,0,411.06,414.2Zm-6.41-4.41a2,2,0,1,0,1.22-2.56A2,2,0,0,0,404.65,409.79Zm-6.33-4.44a1.92,1.92,0,1,0,1.17-2.45A1.92,1.92,0,0,0,398.32,405.35Zm-6.41-4.41a1.92,1.92,0,1,0,1.17-2.45A1.92,1.92,0,0,0,391.91,400.94Zm-6.35-4.43a1.86,1.86,0,1,0,1.13-2.37A1.86,1.86,0,0,0,385.56,396.51Zm-6.35-4.44a1.79,1.79,0,1,0,1.09-2.28A1.8,1.8,0,0,0,379.21,392.07Zm-6.41-4.41a1.79,1.79,0,1,0,1.09-2.28A1.8,1.8,0,0,0,372.8,387.66Zm-6.35-4.43a1.73,1.73,0,1,0,3.26-1.15,1.73,1.73,0,0,0-3.26,1.15Zm-6.4-4.41a1.72,1.72,0,1,0,1.05-2.2A1.73,1.73,0,0,0,360.05,378.82Zm-6.35-4.43a1.66,1.66,0,1,0,3.13-1.11,1.66,1.66,0,0,0-3.13,1.11ZM347.33,370a1.62,1.62,0,0,0,3.05-1.08,1.62,1.62,0,1,0-3.05,1.08Zm-6.41-4.41a1.62,1.62,0,0,0,3.05-1.08,1.62,1.62,0,1,0-3.05,1.08Zm-6.37-4.43a1.58,1.58,0,1,0,1-2A1.58,1.58,0,0,0,334.55,361.13Zm-6.41-4.41a1.58,1.58,0,1,0,1-2A1.58,1.58,0,0,0,328.14,356.72Zm-6.39-4.41a1.55,1.55,0,1,0,.95-2A1.54,1.54,0,0,0,321.75,352.31Zm-6.41-4.41a1.55,1.55,0,1,0,1-2A1.55,1.55,0,0,0,315.34,347.9ZM309,343.47a1.51,1.51,0,1,0,.92-1.92A1.51,1.51,0,0,0,309,343.47Zm-6.39-4.41a1.49,1.49,0,1,0,.91-1.9A1.49,1.49,0,0,0,302.58,339.06Zm-6.45-4.4a1.53,1.53,0,1,0,.94-2A1.53,1.53,0,0,0,296.13,334.66Zm-6.39-4.42a1.51,1.51,0,1,0,.93-1.92A1.51,1.51,0,0,0,289.74,330.24Zm-6.4-4.41a1.51,1.51,0,1,0,.92-1.92A1.5,1.5,0,0,0,283.34,325.83Zm-6.41-4.41a1.51,1.51,0,1,0,.92-1.92A1.5,1.5,0,0,0,276.93,321.42ZM270.52,317a1.51,1.51,0,1,0,.92-1.92A1.5,1.5,0,0,0,270.52,317Zm-6.45-4.39a1.55,1.55,0,1,0,.94-2A1.55,1.55,0,0,0,264.07,312.62Zm142.58,108a2,2,0,1,0,1.22-2.56A2,2,0,0,0,406.65,420.6Zm-6.35-4.43a1.94,1.94,0,1,0,1.18-2.47A1.93,1.93,0,0,0,400.3,416.17Zm-6.37-4.42a1.9,1.9,0,1,0,1.16-2.42A1.9,1.9,0,0,0,393.93,411.75Zm-6.39-4.42a1.88,1.88,0,1,0,1.14-2.39A1.87,1.87,0,0,0,387.54,407.33Zm-6.35-4.43a1.81,1.81,0,1,0,1.11-2.31A1.82,1.82,0,0,0,381.19,402.9Zm-6.39-4.42a1.79,1.79,0,1,0,1.09-2.28A1.8,1.8,0,0,0,374.8,398.48Zm-6.35-4.43a1.73,1.73,0,1,0,1.06-2.2A1.73,1.73,0,0,0,368.45,394.05Zm-6.36-4.42a1.68,1.68,0,1,0,1-2.15A1.68,1.68,0,0,0,362.09,389.63Zm-6.39-4.42a1.66,1.66,0,0,0,3.13-1.11,1.66,1.66,0,1,0-3.13,1.11Zm-6.37-4.42a1.62,1.62,0,1,0,1-2.07A1.61,1.61,0,0,0,349.33,380.79Zm-6.41-4.41a1.62,1.62,0,1,0,1-2.07A1.61,1.61,0,0,0,342.92,376.38ZM336.57,372a1.55,1.55,0,1,0,.95-2A1.55,1.55,0,0,0,336.57,372Zm-6.37-4.43a1.51,1.51,0,1,0,.92-1.93A1.51,1.51,0,0,0,330.2,367.52Zm-6.41-4.41a1.51,1.51,0,1,0,.92-1.92A1.51,1.51,0,0,0,323.79,363.11Zm-6.37-4.42a1.47,1.47,0,1,0,.9-1.87A1.47,1.47,0,0,0,317.42,358.69Zm-6.43-4.4a1.49,1.49,0,1,0,.91-1.9A1.49,1.49,0,0,0,311,354.29Zm-6.39-4.42a1.47,1.47,0,1,0,.9-1.87A1.47,1.47,0,0,0,304.6,349.87Zm-6.41-4.41a1.47,1.47,0,1,0,.9-1.87A1.47,1.47,0,0,0,298.19,345.46ZM291.81,341a1.44,1.44,0,1,0,.88-1.84A1.44,1.44,0,0,0,291.81,341Zm-6.39-4.42a1.42,1.42,0,1,0,.86-1.81A1.41,1.41,0,0,0,285.42,336.62ZM279,332.23a1.46,1.46,0,1,0,.89-1.87A1.46,1.46,0,0,0,279,332.23Zm-6.41-4.41a1.46,1.46,0,1,0,.89-1.87A1.47,1.47,0,0,0,272.56,327.82Zm-6.41-4.41a1.46,1.46,0,1,0,.89-1.87A1.47,1.47,0,0,0,266.15,323.41Zm-6.43-4.4a1.49,1.49,0,1,0,.9-1.9A1.48,1.48,0,0,0,259.72,319Zm-6.43-4.41a1.51,1.51,0,1,0,.92-1.92A1.51,1.51,0,0,0,253.29,314.6Zm142.64,108a1.9,1.9,0,1,0,1.16-2.42A1.9,1.9,0,0,0,395.93,422.57Zm-6.41-4.41a1.9,1.9,0,1,0,1.16-2.42A1.9,1.9,0,0,0,389.52,418.16Zm-6.35-4.43a1.84,1.84,0,1,0,1.12-2.34A1.83,1.83,0,0,0,383.17,413.73Zm-6.35-4.43A1.77,1.77,0,1,0,377.9,407,1.77,1.77,0,0,0,376.82,409.3Zm-6.39-4.42a1.75,1.75,0,1,0,1.07-2.23A1.74,1.74,0,0,0,370.43,404.88Zm-6.34-4.43a1.68,1.68,0,1,0,1-2.15A1.68,1.68,0,0,0,364.09,400.45ZM357.68,396a1.68,1.68,0,1,0,1-2.15A1.68,1.68,0,0,0,357.68,396Zm-6.35-4.43a1.62,1.62,0,1,0,1-2.07A1.61,1.61,0,0,0,351.33,391.61ZM345,387.18a1.55,1.55,0,1,0,.95-2A1.55,1.55,0,0,0,345,387.18Zm-6.41-4.41a1.55,1.55,0,1,0,.95-2A1.55,1.55,0,0,0,338.57,382.77Zm-6.37-4.43a1.51,1.51,0,1,0,2.85-1,1.52,1.52,0,0,0-1.93-.92A1.51,1.51,0,0,0,332.2,378.34Zm-6.41-4.41a1.51,1.51,0,1,0,2.85-1,1.51,1.51,0,0,0-2.85,1Zm-6.37-4.42a1.47,1.47,0,1,0,.9-1.87A1.47,1.47,0,0,0,319.42,369.51Zm-6.35-4.43a1.41,1.41,0,1,0,.86-1.79A1.4,1.4,0,0,0,313.07,365.08Zm-6.43-4.41a1.43,1.43,0,1,0,2.69-.95,1.43,1.43,0,0,0-2.69.95Zm-6.36-4.42a1.38,1.38,0,1,0,.84-1.76A1.38,1.38,0,0,0,300.28,356.25Zm-6.45-4.4a1.41,1.41,0,0,0,1.81.87,1.42,1.42,0,1,0-.95-2.68A1.41,1.41,0,0,0,293.83,351.85Zm-6.39-4.41a1.4,1.4,0,1,0,.85-1.79A1.4,1.4,0,0,0,287.44,347.44ZM281,343a1.4,1.4,0,1,0,.85-1.79A1.4,1.4,0,0,0,281,343Zm-6.41-4.41a1.4,1.4,0,1,0,.85-1.79A1.4,1.4,0,0,0,274.62,338.62Zm-6.41-4.41a1.4,1.4,0,1,0,.85-1.79A1.4,1.4,0,0,0,268.21,334.21Zm-6.43-4.41a1.42,1.42,0,1,0,.87-1.81A1.42,1.42,0,0,0,261.78,329.8Zm-6.43-4.4a1.44,1.44,0,1,0,.88-1.84A1.44,1.44,0,0,0,255.35,325.4ZM248.94,321a1.44,1.44,0,1,0,.88-1.84A1.44,1.44,0,0,0,248.94,321Zm-6.43-4.4a1.47,1.47,0,1,0,.89-1.87A1.47,1.47,0,0,0,242.51,316.59Zm-6.45-4.4a1.51,1.51,0,1,0,.92-1.92A1.51,1.51,0,0,0,236.06,312.19ZM385.17,424.55a1.84,1.84,0,1,0,1.12-2.34A1.83,1.83,0,0,0,385.17,424.55Zm-6.37-4.43a1.79,1.79,0,1,0,1.09-2.28A1.79,1.79,0,0,0,378.8,420.12Zm-6.39-4.41a1.77,1.77,0,1,0,1.08-2.26A1.77,1.77,0,0,0,372.41,415.71Zm-6.35-4.44a1.71,1.71,0,1,0,1-2.17A1.7,1.7,0,0,0,366.06,411.27Zm-6.34-4.43a1.64,1.64,0,1,0,1-2.09A1.63,1.63,0,0,0,359.72,406.84Zm-6.39-4.41a1.62,1.62,0,1,0,1-2.07A1.61,1.61,0,0,0,353.33,402.43ZM347,398a1.55,1.55,0,1,0,2.93-1,1.55,1.55,0,1,0-2.93,1Zm-6.41-4.41a1.55,1.55,0,1,0,.95-2A1.55,1.55,0,0,0,340.57,393.58Zm-6.35-4.43a1.49,1.49,0,1,0,.91-1.9A1.49,1.49,0,0,0,334.22,389.15Zm-6.37-4.42a1.45,1.45,0,1,0,.88-1.85A1.45,1.45,0,0,0,327.85,384.73Zm-6.41-4.41a1.45,1.45,0,1,0,.88-1.85A1.45,1.45,0,0,0,321.44,380.32Zm-6.37-4.43a1.4,1.4,0,1,0,.86-1.78A1.4,1.4,0,0,0,315.07,375.89Zm-6.41-4.4a1.41,1.41,0,1,0,.86-1.79A1.4,1.4,0,0,0,308.66,371.49Zm-6.36-4.43a1.36,1.36,0,1,0,.82-1.73A1.35,1.35,0,0,0,302.3,367.06Zm-6.37-4.42a1.32,1.32,0,1,0,.8-1.68A1.3,1.3,0,0,0,295.93,362.64Zm-6.43-4.41a1.34,1.34,0,1,0,2.52-.89,1.34,1.34,0,0,0-2.52.89Zm-6.39-4.41a1.32,1.32,0,1,0,.8-1.68A1.32,1.32,0,0,0,283.11,353.82Zm-6.45-4.4a1.36,1.36,0,1,0,.83-1.73A1.35,1.35,0,0,0,276.66,349.42ZM270.27,345a1.34,1.34,0,1,0,.81-1.71A1.34,1.34,0,0,0,270.27,345Zm-6.41-4.41a1.34,1.34,0,1,0,.81-1.71A1.34,1.34,0,0,0,263.86,340.6Zm-6.43-4.41a1.36,1.36,0,1,0,.83-1.73A1.36,1.36,0,0,0,257.43,336.19Zm-6.43-4.4a1.38,1.38,0,1,0,.84-1.76A1.37,1.37,0,0,0,251,331.79Zm-6.45-4.4a1.42,1.42,0,0,0,1.82.87,1.42,1.42,0,1,0-1.82-.87Zm-6.43-4.4a1.45,1.45,0,1,0,.88-1.84A1.44,1.44,0,0,0,238.12,323Zm-6.41-4.41a1.45,1.45,0,1,0,.88-1.84A1.45,1.45,0,0,0,231.71,318.58Zm-6.45-4.39a1.49,1.49,0,1,0,.91-1.9A1.48,1.48,0,0,0,225.26,314.19ZM374.45,426.51a1.73,1.73,0,1,0,1.06-2.2A1.73,1.73,0,0,0,374.45,426.51ZM368,422.1a1.73,1.73,0,1,0,1.06-2.2A1.73,1.73,0,0,0,368,422.1Zm-6.34-4.43a1.66,1.66,0,1,0,1-2.12A1.66,1.66,0,0,0,361.7,417.67Zm-6.39-4.42a1.64,1.64,0,1,0,1-2.09A1.63,1.63,0,0,0,355.31,413.25ZM349,408.82a1.58,1.58,0,1,0,1-2A1.58,1.58,0,0,0,349,408.82Zm-6.35-4.43a1.51,1.51,0,1,0,.92-1.93A1.51,1.51,0,0,0,342.61,404.39ZM336.2,400a1.51,1.51,0,1,0,.92-1.93A1.51,1.51,0,0,0,336.2,400Zm-6.35-4.43a1.45,1.45,0,1,0,.88-1.85A1.45,1.45,0,0,0,329.85,395.55Zm-6.41-4.41a1.45,1.45,0,1,0,.88-1.85A1.45,1.45,0,0,0,323.44,391.14Zm-6.35-4.43a1.38,1.38,0,0,0,2.61-.92,1.38,1.38,0,0,0-2.61.92Zm-6.36-4.43a1.34,1.34,0,1,0,.81-1.7A1.33,1.33,0,0,0,310.73,382.28Zm-6.41-4.41a1.34,1.34,0,1,0,.81-1.7A1.33,1.33,0,0,0,304.32,377.87ZM298,373.45a1.29,1.29,0,1,0,.79-1.65A1.29,1.29,0,0,0,298,373.45Zm-6.43-4.4a1.32,1.32,0,1,0,.8-1.68A1.3,1.3,0,0,0,291.52,369.05Zm-6.39-4.42a1.29,1.29,0,1,0,.79-1.65A1.3,1.3,0,0,0,285.13,364.63Zm-6.41-4.41a1.29,1.29,0,1,0,.79-1.65A1.3,1.3,0,0,0,278.72,360.22Zm-6.39-4.42a1.27,1.27,0,1,0,.78-1.62A1.27,1.27,0,0,0,272.33,355.8Zm-6.41-4.41a1.27,1.27,0,1,0,.78-1.62A1.27,1.27,0,0,0,265.92,351.39ZM259.47,347a1.32,1.32,0,1,0,.8-1.68A1.32,1.32,0,0,0,259.47,347ZM253,342.59a1.34,1.34,0,1,0,.82-1.7A1.34,1.34,0,0,0,253,342.59Zm-6.41-4.4a1.34,1.34,0,1,0,.82-1.71A1.34,1.34,0,0,0,246.63,338.19Zm-6.41-4.41a1.34,1.34,0,1,0,.82-1.71A1.34,1.34,0,0,0,240.22,333.78Zm-6.45-4.4a1.38,1.38,0,1,0,.84-1.76A1.37,1.37,0,0,0,233.77,329.38Zm-6.45-4.4a1.42,1.42,0,1,0,.87-1.81A1.42,1.42,0,0,0,227.32,325Zm-6.47-4.38a1.49,1.49,0,1,0,.91-1.9A1.48,1.48,0,0,0,220.85,320.6Zm-6.41-4.41a1.49,1.49,0,1,0,.91-1.9A1.49,1.49,0,0,0,214.44,316.19ZM370,432.92a1.73,1.73,0,1,0,1.06-2.2A1.73,1.73,0,0,0,370,432.92Zm-6.37-4.42a1.69,1.69,0,1,0,1-2.15A1.69,1.69,0,0,0,363.67,428.5Zm-6.34-4.44a1.62,1.62,0,1,0,1-2.06A1.6,1.6,0,0,0,357.33,424.06Zm-6.39-4.41a1.6,1.6,0,1,0,1-2A1.59,1.59,0,0,0,350.94,419.65Zm-6.35-4.43a1.53,1.53,0,1,0,.93-2A1.53,1.53,0,0,0,344.59,415.22Zm-6.39-4.42a1.51,1.51,0,1,0,.92-1.93A1.51,1.51,0,0,0,338.2,410.8Zm-6.35-4.43a1.45,1.45,0,1,0,.88-1.85A1.46,1.46,0,0,0,331.85,406.37Zm-6.37-4.43a1.4,1.4,0,1,0,.86-1.79A1.41,1.41,0,0,0,325.48,401.94Zm-6.39-4.41a1.38,1.38,0,1,0,.84-1.77A1.39,1.39,0,0,0,319.09,397.53Zm-6.37-4.43a1.34,1.34,0,1,0,2.53-.89,1.34,1.34,0,0,0-2.53.89Zm-6.4-4.41a1.34,1.34,0,1,0,.81-1.7A1.33,1.33,0,0,0,306.32,388.69ZM300,384.26a1.27,1.27,0,1,0,.77-1.62A1.26,1.26,0,0,0,300,384.26Zm-6.37-4.42a1.23,1.23,0,1,0,.75-1.57A1.23,1.23,0,0,0,293.6,379.84Zm-6.41-4.41a1.23,1.23,0,1,0,.75-1.57A1.24,1.24,0,0,0,287.19,375.43ZM280.8,371a1.21,1.21,0,0,0,1.54.74,1.21,1.21,0,1,0-.8-2.28A1.21,1.21,0,0,0,280.8,371Zm-6.43-4.4a1.23,1.23,0,1,0,.75-1.57A1.24,1.24,0,0,0,274.37,366.61ZM268,362.2a1.23,1.23,0,1,0,.75-1.57A1.24,1.24,0,0,0,268,362.2Zm-6.41-4.41a1.23,1.23,0,1,0,.75-1.57A1.24,1.24,0,0,0,261.55,357.79Zm-6.41-4.41a1.23,1.23,0,1,0,.75-1.57A1.24,1.24,0,0,0,255.14,353.38Zm-6.43-4.4a1.25,1.25,0,1,0,.76-1.6A1.26,1.26,0,0,0,248.71,349Zm-6.45-4.4a1.29,1.29,0,1,0,.79-1.65A1.3,1.3,0,0,0,242.26,344.58Zm-6.45-4.4a1.34,1.34,0,1,0,.82-1.7A1.34,1.34,0,0,0,235.81,340.18Zm-6.41-4.41a1.34,1.34,0,1,0,.82-1.7A1.34,1.34,0,0,0,229.4,335.77Zm-6.43-4.4a1.36,1.36,0,1,0,.83-1.73A1.36,1.36,0,0,0,223,331.37ZM216.5,327a1.43,1.43,0,1,0,.87-1.81A1.42,1.42,0,0,0,216.5,327Zm142.83,107.9a1.6,1.6,0,0,0,2.06,1,1.62,1.62,0,1,0-1.08-3.05A1.61,1.61,0,0,0,359.33,434.88Zm-6.41-4.41a1.6,1.6,0,0,0,2.06,1,1.62,1.62,0,1,0-2.06-1ZM346.57,426a1.55,1.55,0,1,0,.94-2A1.55,1.55,0,0,0,346.57,426Zm-6.35-4.43a1.49,1.49,0,0,0,1.9.91,1.49,1.49,0,1,0-1.9-.91Zm-6.39-4.42a1.47,1.47,0,1,0,.89-1.87A1.46,1.46,0,0,0,333.83,417.19Zm-6.35-4.43a1.4,1.4,0,1,0,.86-1.79A1.41,1.41,0,0,0,327.48,412.76Zm-6.41-4.41a1.4,1.4,0,1,0,.86-1.79A1.41,1.41,0,0,0,321.07,408.35Zm-6.35-4.43a1.34,1.34,0,1,0,.82-1.71A1.35,1.35,0,0,0,314.72,403.92Zm-6.34-4.43a1.28,1.28,0,0,0,1.62.78,1.29,1.29,0,0,0,.78-1.63,1.28,1.28,0,0,0-1.63-.77A1.26,1.26,0,0,0,308.38,399.49ZM302,395.08a1.28,1.28,0,0,0,1.62.78,1.29,1.29,0,0,0,.78-1.63,1.27,1.27,0,0,0-2.4.85Zm-6.37-4.42a1.23,1.23,0,1,0,.75-1.57A1.23,1.23,0,0,0,295.6,390.66Zm-6.41-4.41a1.23,1.23,0,1,0,.75-1.57A1.23,1.23,0,0,0,289.19,386.25Zm-6.37-4.43a1.19,1.19,0,1,0,.72-1.51A1.18,1.18,0,0,0,282.82,381.82Zm-6.35-4.43a1.12,1.12,0,1,0,.68-1.43A1.12,1.12,0,0,0,276.47,377.39ZM270,373a1.17,1.17,0,0,0,2.2-.78,1.17,1.17,0,0,0-2.2.78Zm-6.39-4.42a1.14,1.14,0,1,0,.7-1.46A1.14,1.14,0,0,0,263.63,368.58Zm-6.45-4.4a1.19,1.19,0,1,0,2.24-.79,1.19,1.19,0,0,0-2.24.79Zm-6.43-4.4a1.21,1.21,0,0,0,1.54.74,1.21,1.21,0,1,0-.8-2.28A1.21,1.21,0,0,0,250.75,359.78Zm-6.41-4.41a1.21,1.21,0,1,0,.74-1.54A1.22,1.22,0,0,0,244.34,355.37Zm-6.43-4.4a1.23,1.23,0,1,0,.75-1.57A1.24,1.24,0,0,0,237.91,351Zm-6.43-4.4a1.25,1.25,0,1,0,.77-1.6A1.26,1.26,0,0,0,231.48,346.57ZM225,342.18a1.32,1.32,0,0,0,1.68.8,1.32,1.32,0,1,0-1.68-.8Zm-6.45-4.4a1.36,1.36,0,1,0,.83-1.73A1.36,1.36,0,0,0,218.56,337.78Zm-6.47-4.39a1.43,1.43,0,1,0,.87-1.81A1.43,1.43,0,0,0,212.09,333.39ZM205.7,329a1.41,1.41,0,1,0,.86-1.79A1.4,1.4,0,0,0,205.7,329Zm130.11,99a1.49,1.49,0,0,0,1.9.91,1.49,1.49,0,1,0-1.9-.91Zm-6.35-4.43a1.43,1.43,0,1,0,.87-1.82A1.43,1.43,0,0,0,329.46,423.59Zm-6.35-4.43a1.36,1.36,0,1,0,.83-1.74A1.36,1.36,0,0,0,323.11,419.16Zm-6.41-4.41a1.36,1.36,0,1,0,.83-1.74A1.36,1.36,0,0,0,316.7,414.75Zm-6.32-4.44a1.28,1.28,0,0,0,1.62.78,1.28,1.28,0,0,0-.85-2.41A1.28,1.28,0,0,0,310.38,410.31ZM304,405.9a1.28,1.28,0,0,0,1.62.78,1.29,1.29,0,0,0,.78-1.63,1.28,1.28,0,0,0-1.63-.77A1.26,1.26,0,0,0,304,405.9Zm-6.35-4.43a1.19,1.19,0,0,0,1.54.73,1.21,1.21,0,1,0-1.54-.73ZM291.25,397a1.17,1.17,0,1,0,.71-1.48A1.16,1.16,0,0,0,291.25,397Zm-6.41-4.41a1.17,1.17,0,1,0,.71-1.48A1.16,1.16,0,0,0,284.84,392.63Zm-6.37-4.42a1.12,1.12,0,1,0,.68-1.43A1.12,1.12,0,0,0,278.47,388.21Zm-6.41-4.41a1.12,1.12,0,1,0,.69-1.43A1.12,1.12,0,0,0,272.06,383.8Zm-6.41-4.41a1.12,1.12,0,1,0,.69-1.43A1.12,1.12,0,0,0,265.65,379.39ZM259.28,375a1.08,1.08,0,1,0,.66-1.38A1.08,1.08,0,0,0,259.28,375Zm-6.45-4.4a1.12,1.12,0,1,0,.69-1.43A1.12,1.12,0,0,0,252.83,370.57Zm-6.41-4.41a1.12,1.12,0,1,0,.69-1.43A1.12,1.12,0,0,0,246.42,366.16ZM240,361.77a1.17,1.17,0,1,0,2.2-.78,1.16,1.16,0,0,0-1.49-.71A1.17,1.17,0,0,0,240,361.77Zm-6.45-4.4a1.21,1.21,0,1,0,.74-1.54A1.21,1.21,0,0,0,233.52,357.37ZM227.11,353a1.21,1.21,0,1,0,2.28-.8,1.21,1.21,0,0,0-2.28.8Zm-6.45-4.4a1.25,1.25,0,1,0,.77-1.59A1.25,1.25,0,0,0,220.66,348.56Zm-6.45-4.39a1.29,1.29,0,1,0,2.44-.86,1.28,1.28,0,0,0-1.65-.79A1.31,1.31,0,0,0,214.21,344.17Zm-6.47-4.39a1.36,1.36,0,1,0,.83-1.73A1.36,1.36,0,0,0,207.74,339.78Zm-6.45-4.39a1.41,1.41,0,1,0,.86-1.79A1.4,1.4,0,0,0,201.29,335.39ZM318.7,425.57a1.36,1.36,0,1,0,.83-1.74A1.37,1.37,0,0,0,318.7,425.57Zm-6.35-4.43a1.3,1.3,0,0,0,2.45-.87,1.3,1.3,0,0,0-2.45.87Zm-12.75-8.85a1.23,1.23,0,1,0,.75-1.56A1.23,1.23,0,0,0,299.6,412.29Zm-6.35-4.43a1.17,1.17,0,1,0,.71-1.48A1.16,1.16,0,0,0,293.25,407.86Zm-6.41-4.41a1.17,1.17,0,1,0,.71-1.48A1.16,1.16,0,0,0,286.84,403.45ZM280.49,399a1.1,1.1,0,0,0,2.08-.73,1.12,1.12,0,0,0-1.41-.67A1.1,1.1,0,0,0,280.49,399Zm-6.35-4.43a1,1,0,0,0,2-.69,1,1,0,0,0-1.33-.63A1,1,0,0,0,274.14,394.59Zm-6.43-4.4a1.06,1.06,0,1,0,.65-1.35A1.05,1.05,0,0,0,267.71,390.19Zm-6.39-4.42a1,1,0,1,0,.63-1.32A1,1,0,0,0,261.32,385.77Zm-6.45-4.39a1.08,1.08,0,1,0,.66-1.38A1.08,1.08,0,0,0,254.87,381.38ZM248.46,377a1.08,1.08,0,1,0,.66-1.38A1.08,1.08,0,0,0,248.46,377Zm-6.41-4.41a1.08,1.08,0,1,0,.66-1.38A1.08,1.08,0,0,0,242.05,372.56Zm-6.43-4.41a1.1,1.1,0,1,0,.68-1.4A1.1,1.1,0,0,0,235.62,368.15Zm-6.43-4.4a1.12,1.12,0,1,0,.69-1.43A1.12,1.12,0,0,0,229.19,363.75Zm-6.47-4.39a1.2,1.2,0,0,0,1.52.73,1.19,1.19,0,1,0-1.52-.73ZM216.27,355a1.23,1.23,0,1,0,.75-1.57A1.24,1.24,0,0,0,216.27,355Zm-6.47-4.39a1.29,1.29,0,1,0,2.44-.86,1.28,1.28,0,0,0-1.65-.79A1.31,1.31,0,0,0,209.8,350.58Zm-6.41-4.41a1.3,1.3,0,1,0,.79-1.65A1.3,1.3,0,0,0,203.39,346.17Zm79.1,63.67a1.1,1.1,0,1,0,.67-1.4A1.1,1.1,0,0,0,282.49,409.84Zm-6.35-4.43a1,1,0,1,0,.63-1.32A1,1,0,0,0,276.14,405.41ZM269.73,401a1,1,0,0,0,2-.69,1,1,0,0,0-1.33-.63A1,1,0,0,0,269.73,401Zm-6.39-4.42a1,1,0,1,0,.62-1.29A1,1,0,0,0,263.34,396.58ZM257,392.15a.94.94,0,1,0,.57-1.21A.94.94,0,0,0,257,392.15Zm-6.45-4.39a1,1,0,0,0,1.87-.67,1,1,0,0,0-1.27-.6A1,1,0,0,0,250.55,387.76Zm-6.41-4.41a1,1,0,0,0,1.87-.67,1,1,0,0,0-1.27-.6A1,1,0,0,0,244.14,383.35Zm-6.45-4.4a1,1,0,1,0,.63-1.32A1,1,0,0,0,237.69,379Zm-6.45-4.39a1.08,1.08,0,0,0,2-.72,1.08,1.08,0,1,0-2,.72Zm-6.45-4.4a1.12,1.12,0,1,0,.68-1.43A1.11,1.11,0,0,0,224.79,370.16Zm-6.41-4.41a1.12,1.12,0,1,0,.68-1.43A1.11,1.11,0,0,0,218.38,365.75Zm-6.47-4.39a1.18,1.18,0,1,0,.72-1.51A1.19,1.19,0,0,0,211.91,361.36ZM205.46,357a1.23,1.23,0,1,0,.74-1.57A1.22,1.22,0,0,0,205.46,357Zm47.13,41.59a.94.94,0,0,0,1.21.58,1,1,0,1,0-.64-1.79A.94.94,0,0,0,252.59,398.56Zm-6.41-4.41a.94.94,0,0,0,1.21.58,1,1,0,1,0-.64-1.79A.94.94,0,0,0,246.18,394.15Zm-12.84-8.81a1,1,0,1,0,.59-1.24A1,1,0,0,0,233.34,385.34Zm-12.92-8.78a1.08,1.08,0,1,0,.65-1.38A1.08,1.08,0,0,0,220.42,376.56Zm-6.45-4.4a1.12,1.12,0,1,0,.68-1.43A1.11,1.11,0,0,0,214,372.16Zm-6.47-4.39a1.18,1.18,0,1,0,.72-1.51A1.17,1.17,0,0,0,207.5,367.77Z" transform="translate(-0.01 -3.81)"/></g></g><path class="cls-8" d="M132.29,326.47c13.84,22.43,20.88,48.67,26,75,2.41,12.51,5.23,26.28,15.35,34,9.18,7,22.43,6.91,32.91,2.06s18.59-13.72,25.18-23.21c15.34-22.08,23.82-48.15,30.76-74.12,5.26-19.68,9.77-39.71,10.35-60.07s-3-41.2-13-58.91c-17.41-30.7-51.91-48.11-86.4-55.57-22.74-4.92-46-6.25-69.19-7.74-23.31-1.49-45.06-2.63-68.37.27-9.25,1.15-19,3-26,9.08-9.27,8-11.66,22-8.41,33.82s11.22,21.78,20,30.35c27.06,26.44,61.54,43.58,89.48,69A120.18,120.18,0,0,1,132.29,326.47Z" transform="translate(-0.01 -3.81)"/><g class="cls-9"><path class="cls-1" d="M67.13,229c-.57,1.59-1.11,3.18-1.64,4.78,49-13.09,129.48.56,240.3,40.84.78-2.25,1.58-4.5,2.4-6.73C217.45,235.13,122.54,211.63,67.13,229Z" transform="translate(-0.01 -3.81)"/><path class="cls-1" d="M74.15,211.51Q73.06,214,72,216.45c47.73-14.92,128.51-2.09,241.11,38.37.9-2.28,1.82-4.54,2.76-6.8C223.77,215.18,128,192.11,74.15,211.51Z" transform="translate(-0.01 -3.81)"/><path class="cls-1" d="M64.27,237.57c-.49,1.57-1,3.15-1.42,4.72,49.68-12,129.89,2.17,239.54,42.28.74-2.24,1.48-4.47,2.24-6.69C214.8,245.29,120.54,221.57,64.27,237.57Z" transform="translate(-0.01 -3.81)"/><path class="cls-1" d="M70.43,220.28q-1,2.41-1.89,4.85c48.35-14.08,129-.86,240.82,39.53.84-2.26,1.7-4.52,2.57-6.76C220.43,225.1,125,201.82,70.43,220.28Z" transform="translate(-0.01 -3.81)"/><path class="cls-1" d="M56.63,272c-.2,1.56-.39,3.13-.55,4.7,52.22-6.71,130.66,9.5,234.41,48.55q.86-3.26,1.72-6.51C207,286.89,116.31,262.29,56.63,272Z" transform="translate(-0.01 -3.81)"/><path class="cls-1" d="M61.79,246.15c-.42,1.56-.82,3.13-1.2,4.7,50.34-10.75,130.22,3.87,238.59,43.77.68-2.22,1.39-4.43,2.1-6.64C212.46,255.55,118.94,231.6,61.79,246.15Z" transform="translate(-0.01 -3.81)"/><path class="cls-1" d="M59.67,254.72c-.34,1.56-.67,3.13-1,4.69,51-9.46,130.48,5.68,237.45,45.34q1-3.3,2-6.6C210.4,265.89,117.7,241.72,59.67,254.72Z" transform="translate(-0.01 -3.81)"/><path class="cls-1" d="M58,263.31c-.11.64-.23,1.27-.34,1.9-.16.93-.29,1.87-.43,2.8,51.63-8.12,130.64,7.56,236.06,46.94q.9-3.29,1.84-6.56C208.6,276.34,116.84,252,58,263.31Z" transform="translate(-0.01 -3.81)"/><path class="cls-1" d="M108.13,154.79q-2.4,3.18-4.72,6.41c46-15.12,125.52-2.93,237.38,36.42q2-3.47,4.16-6.89C254.12,158.94,160.63,136.77,108.13,154.79Z" transform="translate(-0.01 -3.81)"/><path class="cls-1" d="M100.85,164.82c-1.41,2-2.8,4-4.16,6.09,46-15.81,126-3.76,238.81,36,1.27-2.31,2.56-4.61,3.89-6.89C247.63,167.86,153.12,145.58,100.85,164.82Z" transform="translate(-0.01 -3.81)"/><path class="cls-1" d="M116.11,144.59q-2.7,3.33-5.33,6.73c46.15-14.14,125.08-1.72,235.61,37.13,1.47-2.32,2.95-4.62,4.47-6.9C261.24,150.19,169,128.12,116.11,144.59Z" transform="translate(-0.01 -3.81)"/><path class="cls-1" d="M94.27,174.62q-1.84,2.87-3.65,5.78c46.08-16.19,126.45-4.18,239.88,35.9,1.18-2.3,2.4-4.6,3.63-6.88C241.75,177,146.5,154.57,94.27,174.62Z" transform="translate(-0.01 -3.81)"/><path class="cls-1" d="M78.35,202.59c-.83,1.68-1.65,3.38-2.44,5.08,47.17-15.59,128-3.08,241.21,37.39,1-2.28,1.94-4.56,2.94-6.82C227.53,205.4,131.57,182.51,78.35,202.59Z" transform="translate(-0.01 -3.81)"/><path class="cls-1" d="M83.07,193.49c-.95,1.75-1.88,3.5-2.79,5.27,46.7-16,127.48-3.79,241.06,36.63q1.55-3.44,3.16-6.84C231.75,195.77,135.78,173.06,83.07,193.49Z" transform="translate(-0.01 -3.81)"/><path class="cls-1" d="M88.35,184.18q-1.62,2.73-3.18,5.5c46.32-16.27,127-4.18,240.63,36.12q1.65-3.45,3.38-6.87C236.47,186.28,140.73,163.73,88.35,184.18Z" transform="translate(-0.01 -3.81)"/><path class="cls-1" d="M55.24,289.44c-.05,1.58-.08,3.17-.08,4.75,53.2-3.8,130.19,13.45,230.18,51.68.24-1,.47-1.93.7-2.9.27-1.16.56-2.32.85-3.48C204.62,308.28,116.32,283.33,55.24,289.44Z" transform="translate(-0.01 -3.81)"/><path class="cls-1" d="M63.87,350.38q74.51,6.8,189.79,51.37,5.52,2.13,11,4.31c1-1.72,2-3.48,2.94-5.26-69.41-27.42-144.69-51.16-205.32-55.52Q63,347.85,63.87,350.38Z" transform="translate(-0.01 -3.81)"/><path class="cls-1" d="M72.32,371.13q69.74,10,170.41,49.11c2.74,1.06,5.46,2.13,8.18,3.21,1.53-1.45,3-2.94,4.36-4.49-62.07-24.53-128.77-46-185.46-53.17C70.62,367.58,71.45,369.36,72.32,371.13Z" transform="translate(-0.01 -3.81)"/><path class="cls-1" d="M67.6,360.57Q140,369.06,248.2,411q5.18,2,10.33,4.06c1.24-1.6,2.43-3.23,3.55-4.91C196,384,124.65,361.23,65.6,355.37,66.24,357.12,66.9,358.85,67.6,360.57Z" transform="translate(-0.01 -3.81)"/><path class="cls-1" d="M78.36,382.15q66.44,11.37,158.91,47.33l4,1.58c1.86-1.24,3.67-2.54,5.42-4-57.25-22.52-118.23-42.29-171.56-50.48C76.2,378.49,77.27,380.33,78.36,382.15Z" transform="translate(-0.01 -3.81)"/><path class="cls-1" d="M86.2,393.83q61.24,12.23,142.92,43.85c2.31-1,4.59-2.1,6.79-3.32C184.65,414.4,130.68,396.85,82.1,388,83.42,390,84.78,391.93,86.2,393.83Z" transform="translate(-0.01 -3.81)"/><path class="cls-1" d="M112.34,420.07c.62.46,1.25.9,1.88,1.35q35.17,9.43,75.84,24.17a109.1,109.1,0,0,0,13-.89c-32.86-12.17-66.35-23-98.44-30.88Q108.36,417.08,112.34,420.07Z" transform="translate(-0.01 -3.81)"/><path class="cls-1" d="M97,406.55q51.48,11.88,116.14,36.35,4.47-1,8.79-2.47c-43.55-16.66-88.73-31.34-130.65-40.22Q94.07,403.47,97,406.55Z" transform="translate(-0.01 -3.81)"/><path class="cls-1" d="M60.94,340.49c50.81,3.29,117,20.64,198.18,52q5.29,2.06,10.54,4.12c.85-1.82,1.67-3.67,2.44-5.55-72.28-28.43-150.79-52.83-212.39-55.58C60.09,337.16,60.51,338.83,60.94,340.49Z" transform="translate(-0.01 -3.81)"/><path class="cls-1" d="M55.17,298.35c0,1.59.07,3.18.15,4.77C108.54,300.81,184,318.3,281,355.53l1.88.72q.76-3.15,1.52-6.29C203.71,319.1,116.82,294,55.17,298.35Z" transform="translate(-0.01 -3.81)"/><path class="cls-1" d="M55.57,307.36c.1,1.62.24,3.23.39,4.84,52.89-.83,126.28,16.71,219.55,52.57l4.68,1.81c.56-2.05,1.09-4.11,1.62-6.17C202.9,330,117.61,304.86,55.57,307.36Z" transform="translate(-0.01 -3.81)"/><path class="cls-1" d="M124.81,134.26q-3,3.48-6,7c46.42-12.89,124.62-.15,233.5,38.09q2.35-3.47,4.8-6.88C269,141.65,178.21,119.66,124.81,134.26Z" transform="translate(-0.01 -3.81)"/><path class="cls-1" d="M56.43,316.56c.19,1.63.41,3.25.65,4.88,52.39.6,123.56,18.14,213,52.58,2.39.92,4.79,1.85,7.17,2.79q.94-3,1.8-6C202.06,340.89,118.65,315.85,56.43,316.56Z" transform="translate(-0.01 -3.81)"/><path class="cls-1" d="M58.71,330.85c51.71,2,120.49,19.47,205.87,52.41q4.62,1.78,9.19,3.59c.73-1.92,1.41-3.85,2.07-5.8-74.77-29.25-155.95-54.08-218-55.13C58.08,327.57,58.38,329.21,58.71,330.85Z" transform="translate(-0.01 -3.81)"/><path class="cls-1" d="M55.72,280.65c-.13,1.57-.23,3.15-.31,4.72,52.75-5.27,130.51,11.47,232.45,50.14.53-2.15,1.08-4.3,1.63-6.45C205.71,297.54,116.14,272.74,55.72,280.65Z" transform="translate(-0.01 -3.81)"/><path class="cls-1" d="M169.76,444.11c-12.71-4.35-25.43-8.43-38-12.15A130,130,0,0,0,169.76,444.11Z" transform="translate(-0.01 -3.81)"/><path class="cls-1" d="M232.22,46.36q-6.42,3.51-12.71,7.3a357.77,357.77,0,0,1,38.62,4.2c45.15,7.2,101.32,23,167,46.88q4-2.74,8.15-5.35l1.48-1L433.49,98C350,67.4,282.26,50.13,232.22,46.36Z" transform="translate(-0.01 -3.81)"/><path class="cls-1" d="M442.79,56.07c-50.43-17.87-95-30.87-133-38.81-7.08,1.4-14.1,3.16-21,5.23C333,30.43,387.11,46,449.88,68.83A39.2,39.2,0,0,0,442.79,56.07Z" transform="translate(-0.01 -3.81)"/><path class="cls-1" d="M165.78,93.24q-4.28,3.75-8.45,7.61c48.08-6.33,122.5,8.24,222.46,43.59q3.12-3.42,6.37-6.74C305.33,109.11,221.52,87.23,165.78,93.24Z" transform="translate(-0.01 -3.81)"/><path class="cls-1" d="M154.65,103.34q-4,3.72-7.82,7.54c47.63-8.09,123.1,6,225.48,42.09q2.91-3.45,5.92-6.8C295.44,117,209.82,95.13,154.65,103.34Z" transform="translate(-0.01 -3.81)"/><path class="cls-1" d="M177.39,83.42q-4.53,3.7-9,7.53c48.51-4.54,121.87,10.54,219.32,45.14q3.45-3.48,7-6.85C299.67,95.42,226.23,80,177.39,83.42Z" transform="translate(-0.01 -3.81)"/><path class="cls-1" d="M398.57,23.7a133.66,133.66,0,0,0-35.24-9.07,153.46,153.46,0,0,0-19.74-1q36.3,9.13,79.16,23.44A118,118,0,0,0,398.57,23.7Z" transform="translate(-0.01 -3.81)"/><path class="cls-1" d="M268.84,40.62q-10.38-1.66-20-2.72-7.2,3.41-14.23,7.16,13.63,1.14,28.95,3.58C309.47,56,366.79,72.15,434,96.72l2.16.79a48.68,48.68,0,0,0,8.14-7L439,88.63C371.88,64.12,314.63,48,268.84,40.62Z" transform="translate(-0.01 -3.81)"/><path class="cls-1" d="M424.92,38.68q-46-15.43-84.58-25a185.64,185.64,0,0,0-28.16,3.11c37.17,7.91,80.56,20.6,129.49,37.89A101.48,101.48,0,0,0,424.92,38.68Z" transform="translate(-0.01 -3.81)"/><path class="cls-1" d="M192.57,71.69c49.27-1,120.35,15.15,212.62,48.27q4-3.4,8.2-6.64C323.67,81,252.76,64.54,203,64.27Q197.74,67.89,192.57,71.69Z" transform="translate(-0.01 -3.81)"/><path class="cls-1" d="M189.82,73.72q-4.89,3.66-9.68,7.49c48.91-2.75,121.16,12.86,216.05,46.72q3.72-3.45,7.59-6.76C311.34,88.09,239.14,72.17,189.82,73.72Z" transform="translate(-0.01 -3.81)"/><path class="cls-1" d="M274.31,31.31c-2.57-.42-5.09-.79-7.58-1.15q-8,3.17-15.78,6.75c5.82.68,11.84,1.5,18.09,2.51,45.86,7.35,103.18,23.52,170.37,48.06l5.71,2.09a24.73,24.73,0,0,0,4.8-8.28l-5.44-2C377.33,54.81,320.08,38.67,274.31,31.31Z" transform="translate(-0.01 -3.81)"/><path class="cls-1" d="M286.64,23.15q-6.25,1.94-12.4,4.15c-1.8.66-3.6,1.34-5.38,2,1.86.27,3.73.56,5.63.86,45.84,7.38,103.17,23.54,170.38,48l5.37,2a20.21,20.21,0,0,0,0-10.16L450,70C386.11,46.71,331.21,31,286.64,23.15Z" transform="translate(-0.01 -3.81)"/><path class="cls-1" d="M134.16,123.9q-3.34,3.59-6.62,7.26c46.78-11.42,124.15,1.71,231.06,39.28q2.52-3.47,5.15-6.86C277.26,133.27,188.14,111.34,134.16,123.9Z" transform="translate(-0.01 -3.81)"/><path class="cls-1" d="M205.46,62.63a335.22,335.22,0,0,1,47.22,4.45c44.05,7,98.57,22.19,162.15,45.15q4.37-3.35,8.88-6.49c-87-31.6-156.53-48.55-206.59-50.61Q211.21,58.76,205.46,62.63Z" transform="translate(-0.01 -3.81)"/><path class="cls-1" d="M144.13,113.56q-1.63,1.64-3.25,3.29-2,2.06-4,4.15c47.19-9.8,123.64,3.78,228.36,40.64q2.72-3.46,5.51-6.84C286.09,125.06,198.7,103.17,144.13,113.56Z" transform="translate(-0.01 -3.81)"/><path class="cls-10" d="M131.72,432c12.61,3.72,25.33,7.8,38,12.15a128,128,0,0,0,14.63,1.42c1.89.07,3.78.08,5.67.06q-40.67-14.73-75.84-24.17A127.35,127.35,0,0,0,131.72,432Z" transform="translate(-0.01 -3.81)"/><path class="cls-11" d="M104.64,413.82c32.09,7.88,65.58,18.71,98.44,30.88a100.47,100.47,0,0,0,10.09-1.8Q148.54,418.42,97,406.55,100.67,410.33,104.64,413.82Z" transform="translate(-0.01 -3.81)"/><path class="cls-12" d="M91.31,400.21c41.92,8.88,87.1,23.56,130.65,40.22q3.64-1.21,7.16-2.75Q147.51,406.06,86.2,393.83C87.83,396,89.54,398.13,91.31,400.21Z" transform="translate(-0.01 -3.81)"/><path class="cls-13" d="M78.36,382.15c1.2,2,2.44,3.94,3.74,5.87,48.58,8.83,102.55,26.38,153.81,46.34,1.85-1,3.65-2.13,5.41-3.3l-4-1.58Q144.89,393.53,78.36,382.15Z" transform="translate(-0.01 -3.81)"/><path class="cls-14" d="M72.32,371.13c.91,1.85,1.88,3.68,2.86,5.49,53.33,8.19,114.31,28,171.56,50.48,1-.81,2-1.64,3-2.51l1.21-1.14c-2.72-1.08-5.44-2.15-8.18-3.21Q142.17,381.17,72.32,371.13Z" transform="translate(-0.01 -3.81)"/><path class="cls-15" d="M67.6,360.57c.71,1.75,1.44,3.49,2.21,5.22C126.5,372.94,193.2,394.43,255.27,419c1.13-1.27,2.22-2.58,3.26-3.91Q253.39,413,248.2,411,140.11,369.08,67.6,360.57Z" transform="translate(-0.01 -3.81)"/><path class="cls-16" d="M63.87,350.38c.55,1.67,1.13,3.34,1.73,5C124.65,361.23,196,384,262.08,410.14c.9-1.33,1.76-2.7,2.58-4.08q-5.48-2.18-11-4.31Q138.55,357.19,63.87,350.38Z" transform="translate(-0.01 -3.81)"/><path class="cls-17" d="M60.94,340.49c.42,1.61.87,3.2,1.34,4.79,60.63,4.36,135.91,28.1,205.32,55.52q1.06-2.07,2.06-4.18-5.25-2.07-10.54-4.12C178,361.13,111.75,343.78,60.94,340.49Z" transform="translate(-0.01 -3.81)"/><path class="cls-18" d="M58.71,330.85c.32,1.55.64,3.1,1,4.64,61.6,2.75,140.11,27.15,212.39,55.58.58-1.39,1.14-2.8,1.67-4.22q-4.57-1.82-9.19-3.59C179.2,350.32,110.42,332.83,58.71,330.85Z" transform="translate(-0.01 -3.81)"/><path class="cls-19" d="M57.08,321.44c.22,1.49.45,3,.71,4.48,62.1,1.05,143.28,25.88,218.05,55.13.48-1.41.94-2.82,1.38-4.24-2.38-.94-4.78-1.87-7.17-2.79C180.64,339.58,109.47,322,57.08,321.44Z" transform="translate(-0.01 -3.81)"/><path class="cls-20" d="M56,312.2c.14,1.46.3,2.91.47,4.36,62.22-.71,145.63,24.33,222.59,54.24.4-1.4.79-2.81,1.17-4.22l-4.68-1.81C182.24,328.91,108.85,311.37,56,312.2Z" transform="translate(-0.01 -3.81)"/><path class="cls-21" d="M55.32,303.12c.06,1.42.15,2.83.25,4.24,62-2.5,147.33,22.62,226.24,53.05.35-1.38.69-2.77,1-4.16l-1.88-.72C184,318.3,108.54,300.81,55.32,303.12Z" transform="translate(-0.01 -3.81)"/><path class="cls-22" d="M55.16,294.19c0,1.38,0,2.77,0,4.16C116.82,294,203.71,319.1,284.37,350c.33-1.37.65-2.73,1-4.09C185.35,307.64,108.36,290.39,55.16,294.19Z" transform="translate(-0.01 -3.81)"/><path class="cls-23" d="M55.41,285.37c-.07,1.36-.12,2.71-.17,4.07,61.08-6.11,149.38,18.84,231.65,50.05.32-1.33.64-2.65,1-4C185.92,296.84,108.16,280.1,55.41,285.37Z" transform="translate(-0.01 -3.81)"/><path class="cls-24" d="M56.08,276.65c-.13,1.33-.26,2.66-.36,4,60.42-7.91,150,16.89,233.77,48.41.33-1.29.66-2.58,1-3.86C186.74,286.15,108.3,269.94,56.08,276.65Z" transform="translate(-0.01 -3.81)"/><path class="cls-25" d="M57.19,268c-.2,1.31-.39,2.62-.56,3.94,59.68-9.66,150.4,14.94,235.58,46.74.34-1.25.69-2.49,1-3.74C187.83,275.57,108.82,259.89,57.19,268Z" transform="translate(-0.01 -3.81)"/><path class="cls-26" d="M58.69,259.41c-.26,1.3-.49,2.6-.73,3.9,58.88-11.36,150.64,13,237.13,45.08l1.05-3.64C189.17,265.09,109.69,250,58.69,259.41Z" transform="translate(-0.01 -3.81)"/><path class="cls-27" d="M60.59,250.85c-.32,1.29-.63,2.58-.92,3.87,58-13,150.73,11.17,238.44,43.43.35-1.17.7-2.36,1.07-3.53C190.81,254.72,110.93,240.1,60.59,250.85Z" transform="translate(-0.01 -3.81)"/><path class="cls-28" d="M62.85,242.29c-.36,1.29-.72,2.57-1.06,3.86,57.15-14.55,150.67,9.4,239.49,41.83l1.11-3.41C192.74,244.46,112.53,230.33,62.85,242.29Z" transform="translate(-0.01 -3.81)"/><path class="cls-29" d="M65.49,233.74c-.42,1.27-.82,2.55-1.22,3.83,56.27-16,150.53,7.72,240.36,40.31.38-1.11.77-2.2,1.16-3.3C195,234.3,114.49,220.65,65.49,233.74Z" transform="translate(-0.01 -3.81)"/><path class="cls-30" d="M68.54,225.13c-.48,1.27-1,2.55-1.41,3.83,55.41-17.33,150.32,6.17,241.06,38.89.38-1.07.77-2.13,1.17-3.19C197.55,224.27,116.89,211.05,68.54,225.13Z" transform="translate(-0.01 -3.81)"/><path class="cls-31" d="M72,216.45c-.54,1.27-1.07,2.55-1.58,3.83,54.6-18.46,150,4.82,241.5,37.62.4-1,.78-2.06,1.19-3.08C200.52,214.36,119.74,201.53,72,216.45Z" transform="translate(-0.01 -3.81)"/><path class="cls-32" d="M75.91,207.67c-.6,1.28-1.18,2.56-1.76,3.84C128,192.11,223.77,215.18,315.88,248c.41-1,.82-2,1.24-3C203.9,204.59,123.08,192.08,75.91,207.67Z" transform="translate(-0.01 -3.81)"/><path class="cls-33" d="M80.28,198.76c-.65,1.27-1.29,2.55-1.93,3.83,53.22-20.08,149.18,2.81,241.71,35.65.42-1,.86-1.9,1.28-2.85C207.76,195,127,182.71,80.28,198.76Z" transform="translate(-0.01 -3.81)"/><path class="cls-34" d="M85.17,189.68c-.71,1.26-1.41,2.54-2.1,3.81,52.71-20.43,148.68,2.28,241.43,35.06.43-.92.86-1.83,1.3-2.75C212.13,185.5,131.49,173.41,85.17,189.68Z" transform="translate(-0.01 -3.81)"/><path class="cls-35" d="M90.62,180.4q-1.14,1.89-2.27,3.78c52.38-20.45,148.12,2.1,240.83,34.75l1.19-2.38c.05-.09.09-.16.13-.25C217.07,176.22,136.7,164.21,90.62,180.4Z" transform="translate(-0.01 -3.81)"/><path class="cls-36" d="M96.69,170.91q-1.22,1.84-2.42,3.71c52.23-20.05,147.48,2.36,239.86,34.8.45-.84.91-1.67,1.37-2.51C222.67,167.15,142.65,155.1,96.69,170.91Z" transform="translate(-0.01 -3.81)"/><path class="cls-37" d="M103.41,161.2q-1.29,1.8-2.56,3.62c52.27-19.24,146.78,3,238.54,35.2.46-.8.93-1.6,1.4-2.4C228.93,158.27,149.4,146.08,103.41,161.2Z" transform="translate(-0.01 -3.81)"/><path class="cls-38" d="M110.78,151.32c-.89,1.15-1.78,2.31-2.65,3.47,52.5-18,146,4.15,236.82,35.94l1.44-2.28C235.86,149.6,156.93,137.18,110.78,151.32Z" transform="translate(-0.01 -3.81)"/><path class="cls-39" d="M118.82,141.29q-1.36,1.64-2.71,3.3c52.9-16.47,145.13,5.6,234.75,37l1.46-2.17C243.44,141.14,165.24,128.4,118.82,141.29Z" transform="translate(-0.01 -3.81)"/><path class="cls-40" d="M127.54,131.16l-2.73,3.1c53.4-14.6,144.16,7.39,232.31,38.24l1.48-2.06C251.69,132.87,174.32,119.74,127.54,131.16Z" transform="translate(-0.01 -3.81)"/><path class="cls-41" d="M136.89,121c-.92,1-1.82,1.93-2.73,2.9,54-12.56,143.1,9.37,229.59,39.68l1.5-1.94C260.53,124.78,184.08,111.2,136.89,121Z" transform="translate(-0.01 -3.81)"/><path class="cls-42" d="M146.83,110.88l-2.7,2.68c54.57-10.39,142,11.5,226.63,41.24.51-.62,1-1.22,1.55-1.83C269.93,116.86,194.46,102.79,146.83,110.88Z" transform="translate(-0.01 -3.81)"/><path class="cls-43" d="M157.33,100.85c-.9.82-1.79,1.65-2.68,2.49,55.17-8.21,140.79,13.67,223.58,42.83l1.56-1.73C279.83,109.09,205.41,94.52,157.33,100.85Z" transform="translate(-0.01 -3.81)"/><path class="cls-44" d="M168.41,91c-.88.76-1.76,1.52-2.63,2.29,55.74-6,139.55,15.87,220.38,44.46l1.57-1.61C290.28,101.49,216.92,86.41,168.41,91Z" transform="translate(-0.01 -3.81)"/><path class="cls-45" d="M180.14,81.21l-2.75,2.21c48.84-3.39,122.28,12,217.38,45.82l1.42-1.31C301.3,94.07,229.05,78.46,180.14,81.21Z" transform="translate(-0.01 -3.81)"/><path class="cls-46" d="M192.57,71.69c-.92.67-1.83,1.34-2.75,2,49.32-1.55,121.52,14.37,214,47.45.47-.4.93-.81,1.41-1.21C312.92,86.84,241.84,70.72,192.57,71.69Z" transform="translate(-0.01 -3.81)"/><path class="cls-47" d="M205.46,62.63c-.81.54-1.63,1.09-2.43,1.64,49.73.27,120.64,16.72,210.36,49.05l1.44-1.09c-63.58-23-118.1-38.15-162.15-45.15A335.22,335.22,0,0,0,205.46,62.63Z" transform="translate(-0.01 -3.81)"/><path class="cls-48" d="M219.51,53.66c-.8.48-1.59,1-2.39,1.47,50.06,2.06,119.63,19,206.59,50.61l1.42-1c-65.68-23.91-121.85-39.68-167-46.88A357.77,357.77,0,0,0,219.51,53.66Z" transform="translate(-0.01 -3.81)"/><path class="cls-49" d="M263.58,48.64q-15.33-2.46-28.95-3.58l-2.41,1.3c50,3.77,117.73,21,201.27,51.6l1.27.47,1.35-.92L434,96.72C366.79,72.15,309.47,56,263.58,48.64Z" transform="translate(-0.01 -3.81)"/><path class="cls-50" d="M269,39.42c-6.25-1-12.27-1.83-18.09-2.51l-2.09,1q9.6,1.07,20,2.72c45.79,7.35,103,23.5,170.15,48l5.26,1.93q.45-.5.87-1l-5.71-2.09C372.22,62.94,314.9,46.77,269,39.42Z" transform="translate(-0.01 -3.81)"/><path class="cls-51" d="M274.49,30.19c-1.9-.3-3.77-.59-5.63-.86l-2.13.83c2.49.36,5,.73,7.58,1.15,45.77,7.36,103,23.5,170.17,48l5.44,2c.12-.36.22-.73.32-1.09l-5.37-2C377.66,53.73,320.33,37.57,274.49,30.19Z" transform="translate(-0.01 -3.81)"/><path class="cls-52" d="M288.82,22.49l-2.18.66C331.21,31,386.11,46.71,450,70l.24.09c-.1-.4-.21-.81-.34-1.21C387.11,46,333,30.43,288.82,22.49Z" transform="translate(-0.01 -3.81)"/><path class="cls-53" d="M442.09,55.18l-.42-.49c-48.93-17.29-92.32-30-129.49-37.89-.79.14-1.56.31-2.34.46,38,7.94,82.52,20.94,133,38.81Z" transform="translate(-0.01 -3.81)"/><path class="cls-54" d="M422.75,37.08Q380,22.79,343.59,13.64c-1.09,0-2.17,0-3.25,0q38.54,9.54,84.58,25C424.2,38.14,423.48,37.6,422.75,37.08Z" transform="translate(-0.01 -3.81)"/></g><g class="cls-55"><ellipse class="cls-56" cx="237.13" cy="353.18" rx="110.16" ry="146.17" transform="translate(-45.81 31.71) rotate(-7.81)"/></g><g class="cls-55"><ellipse class="cls-57" cx="311.44" cy="160.76" rx="80.05" ry="119.74" transform="translate(131.89 457.95) rotate(-86.49)"/></g><path class="cls-58" d="M124.54,438.07h0a5.57,5.57,0,0,0,7.78-1.3L185.7,362a5.57,5.57,0,0,0-1.3-7.78h0a5.57,5.57,0,0,0-7.78,1.3l-53.37,74.77A5.58,5.58,0,0,0,124.54,438.07Z" transform="translate(-0.01 -3.81)"/><path class="cls-59" d="M450.89,277h0a5.57,5.57,0,0,0,7.78-1.3l38.23-53.55a5.57,5.57,0,0,0-1.3-7.78h0a5.57,5.57,0,0,0-7.78,1.3l-38.23,53.55A5.58,5.58,0,0,0,450.89,277Z" transform="translate(-0.01 -3.81)"/><circle class="cls-60" cx="304.51" cy="449.67" r="12.59"/><path class="cls-61" d="M39.89,402.07A5.93,5.93,0,1,1,45.81,408,5.93,5.93,0,0,1,39.89,402.07Z" transform="translate(-0.01 -3.81)"/><path class="cls-62" d="M56.82,289A5.93,5.93,0,1,1,62.75,295,5.93,5.93,0,0,1,56.82,289Z" transform="translate(-0.01 -3.81)"/><circle class="cls-63" cx="346.39" cy="422.91" r="8.43"/><circle class="cls-64" cx="461.43" cy="319.82" r="8.43"/><path class="cls-65" d="M364.68,348h0a3,3,0,0,1-.69-4.13l96.37-135a3,3,0,0,1,4.13-.69h0a3,3,0,0,1,.69,4.13l-96.38,135A3,3,0,0,1,364.68,348Z" transform="translate(-0.01 -3.81)"/><path class="cls-66" d="M86.53,364.88h0a3,3,0,0,1-.69-4.13l96.37-135a3,3,0,0,1,4.13-.69h0a3,3,0,0,1,.69,4.13l-96.38,135A3,3,0,0,1,86.53,364.88Z" transform="translate(-0.01 -3.81)"/><path class="cls-67" d="M400.26,356.66c-17,45.1-69.17,82.1-122.13,80-36-1.4-68.67-14.49-77.77-47.59-6.76-24.61-63.46-7.89-96.73-53.11-31.68-43.08,8.11-87.41-8.46-128.49-10.35-25.67-49.28-31.15-61.36-71.79-9.23-31,3.37-64.83,11-75.76,12-17.16,24.6-23.57,36.05-27.47C112.3,21.77,147.21,31,177,45.75c29.48,14.6,56.36,36.48,87.49,47.43,32.84,11.55,69.27,13.35,103.72,11.11,18.36-1.2,37.23-1.85,54.72,3.86s33.56,19.08,37.53,37c2.18,9.83.59,20.17-2.65,29.7-7.23,21.19-27.46,40.38-38.91,59.62C397.68,270.1,414.73,318.21,400.26,356.66Z" transform="translate(-0.01 -3.81)"/></g></g></g></g></svg>